M48
; DRILL file {KiCad (5.1.2)-2} date 10.10.2019. 12:38:23
; FORMAT={-:-/ absolute / inch / decimal}
; #@! TF.CreationDate,2019-10-10T12:38:23+02:00
; #@! TF.GenerationSoftware,Kicad,Pcbnew,(5.1.2)-2
; #@! TF.FileFunction,Plated,1,2,PTH
FMAT,2
INCH
T1C0.0157
T2C0.0394
%
G90
G05
T1
X7.58Y-3.16
X7.61Y-3.07
X7.61Y-3.29
X7.62Y-3.17
X7.68Y-3.18
X7.7Y-3.26
X7.71Y-3.53
X7.73Y-2.98
X7.78Y-3.48
X7.8Y-2.5
X7.8Y-2.56
X7.8Y-2.61
X7.8Y-2.66
X7.8Y-2.71
X7.8Y-2.97
X7.8Y-3.59
X7.83Y-2.93
X7.85Y-3.56
X7.86Y-3.07
X7.89Y-3.11
X7.89Y-3.17
X7.93Y-2.93
X7.99Y-3.16
X8.0Y-2.75
X8.03Y-2.83
X8.03Y-3.14
X8.06Y-3.07
X8.07Y-2.9
X8.11Y-2.93
X8.11Y-3.02
X8.11Y-3.15
X8.13Y-3.1
X8.15Y-2.96
X8.17Y-3.05
X8.17Y-3.32
X8.19Y-3.0
X8.24Y-2.98
X8.25Y-3.33
X8.28Y-3.0
X8.32Y-2.85
X8.37Y-2.84
X8.4Y-2.91
X8.4Y-2.97
X8.41Y-3.27
X8.44Y-2.55
X8.44Y-2.84
X8.47Y-2.98
X8.54Y-2.97
T2
X8.92Y-2.3
X8.92Y-2.4
X8.92Y-2.5
X8.92Y-2.6
X8.92Y-2.7
X8.92Y-2.8
X8.92Y-2.9
X8.92Y-3.0
X8.92Y-3.1
X8.92Y-3.2
X8.92Y-3.3
X8.92Y-3.4
X8.92Y-3.5
X9.02Y-2.3
X9.02Y-2.4
X9.02Y-2.5
X9.02Y-2.6
X9.02Y-2.7
X9.02Y-2.8
X9.02Y-2.9
X9.02Y-3.0
X9.02Y-3.1
X9.02Y-3.2
X9.02Y-3.3
X9.02Y-3.4
X9.02Y-3.5
X7.52Y-2.0
X7.52Y-2.1
X7.62Y-2.0
X7.62Y-2.1
X7.72Y-2.0
X7.72Y-2.1
X7.82Y-2.0
X7.82Y-2.1
X7.92Y-2.0
X7.92Y-2.1
X8.02Y-2.0
X8.02Y-2.1
X8.12Y-2.0
X8.12Y-2.1
X8.22Y-2.0
X8.22Y-2.1
X8.32Y-2.0
X8.32Y-2.1
X8.42Y-2.0
X8.42Y-2.1
X8.52Y-2.0
X8.52Y-2.1
X8.62Y-2.0
X8.62Y-2.1
X8.72Y-2.0
X8.72Y-2.1
X7.22Y-2.3
X7.22Y-2.4
X7.22Y-2.5
X7.22Y-2.6
X7.22Y-2.7
X7.22Y-2.8
X7.22Y-2.9
X7.22Y-3.0
X7.22Y-3.1
X7.22Y-3.2
X7.22Y-3.3
X7.22Y-3.4
X7.22Y-3.5
X7.32Y-2.3
X7.32Y-2.4
X7.32Y-2.5
X7.32Y-2.6
X7.32Y-2.7
X7.32Y-2.8
X7.32Y-2.9
X7.32Y-3.0
X7.32Y-3.1
X7.32Y-3.2
X7.32Y-3.3
X7.32Y-3.4
X7.32Y-3.5
X7.52Y-3.7
X7.52Y-3.8
X7.62Y-3.7
X7.62Y-3.8
X7.72Y-3.7
X7.72Y-3.8
X7.82Y-3.7
X7.82Y-3.8
X7.92Y-3.7
X7.92Y-3.8
X8.02Y-3.7
X8.02Y-3.8
X8.12Y-3.7
X8.12Y-3.8
X8.22Y-3.7
X8.22Y-3.8
X8.32Y-3.7
X8.32Y-3.8
X8.42Y-3.7
X8.42Y-3.8
X8.52Y-3.7
X8.52Y-3.8
X8.62Y-3.7
X8.62Y-3.8
X8.72Y-3.7
X8.72Y-3.8
T0
M30
