G04 #@! TF.GenerationSoftware,KiCad,Pcbnew,(5.1.2)-2*
G04 #@! TF.CreationDate,2019-10-10T12:38:20+02:00*
G04 #@! TF.ProjectId,PIC18F87K22 MCU Card,50494331-3846-4383-974b-3232204d4355,rev?*
G04 #@! TF.SameCoordinates,Original*
G04 #@! TF.FileFunction,Soldermask,Top*
G04 #@! TF.FilePolarity,Negative*
%FSLAX46Y46*%
G04 Gerber Fmt 4.6, Leading zero omitted, Abs format (unit mm)*
G04 Created by KiCad (PCBNEW (5.1.2)-2) date 2019-10-10 12:38:20*
%MOMM*%
%LPD*%
G04 APERTURE LIST*
%ADD10C,0.100000*%
G04 APERTURE END LIST*
D10*
G36*
X229601000Y-97651000D02*
G01*
X227599000Y-97651000D01*
X227599000Y-95949000D01*
X229601000Y-95949000D01*
X229601000Y-97651000D01*
X229601000Y-97651000D01*
G37*
G36*
X185151000Y-97651000D02*
G01*
X183149000Y-97651000D01*
X183149000Y-95949000D01*
X185151000Y-95949000D01*
X185151000Y-97651000D01*
X185151000Y-97651000D01*
G37*
G36*
X216584627Y-95632037D02*
G01*
X216584630Y-95632038D01*
X216754465Y-95683556D01*
X216910990Y-95767221D01*
X217048185Y-95879815D01*
X217160779Y-96017010D01*
X217244444Y-96173535D01*
X217290070Y-96323947D01*
X217295963Y-96343373D01*
X217313359Y-96520000D01*
X217295963Y-96696627D01*
X217295962Y-96696630D01*
X217244444Y-96866465D01*
X217160779Y-97022990D01*
X217048185Y-97160185D01*
X216910990Y-97272779D01*
X216754465Y-97356444D01*
X216604053Y-97402070D01*
X216584627Y-97407963D01*
X216452258Y-97421000D01*
X216363742Y-97421000D01*
X216231373Y-97407963D01*
X216211947Y-97402070D01*
X216061535Y-97356444D01*
X215905010Y-97272779D01*
X215767815Y-97160185D01*
X215655221Y-97022990D01*
X215571556Y-96866465D01*
X215520038Y-96696630D01*
X215520037Y-96696627D01*
X215502641Y-96520000D01*
X215520037Y-96343373D01*
X215525930Y-96323947D01*
X215571556Y-96173535D01*
X215655221Y-96017010D01*
X215767815Y-95879815D01*
X215905010Y-95767221D01*
X216061535Y-95683556D01*
X216231370Y-95632038D01*
X216231373Y-95632037D01*
X216363742Y-95619000D01*
X216452258Y-95619000D01*
X216584627Y-95632037D01*
X216584627Y-95632037D01*
G37*
G36*
X214044627Y-95632037D02*
G01*
X214044630Y-95632038D01*
X214214465Y-95683556D01*
X214370990Y-95767221D01*
X214508185Y-95879815D01*
X214620779Y-96017010D01*
X214704444Y-96173535D01*
X214750070Y-96323947D01*
X214755963Y-96343373D01*
X214773359Y-96520000D01*
X214755963Y-96696627D01*
X214755962Y-96696630D01*
X214704444Y-96866465D01*
X214620779Y-97022990D01*
X214508185Y-97160185D01*
X214370990Y-97272779D01*
X214214465Y-97356444D01*
X214064053Y-97402070D01*
X214044627Y-97407963D01*
X213912258Y-97421000D01*
X213823742Y-97421000D01*
X213691373Y-97407963D01*
X213671947Y-97402070D01*
X213521535Y-97356444D01*
X213365010Y-97272779D01*
X213227815Y-97160185D01*
X213115221Y-97022990D01*
X213031556Y-96866465D01*
X212980038Y-96696630D01*
X212980037Y-96696627D01*
X212962641Y-96520000D01*
X212980037Y-96343373D01*
X212985930Y-96323947D01*
X213031556Y-96173535D01*
X213115221Y-96017010D01*
X213227815Y-95879815D01*
X213365010Y-95767221D01*
X213521535Y-95683556D01*
X213691370Y-95632038D01*
X213691373Y-95632037D01*
X213823742Y-95619000D01*
X213912258Y-95619000D01*
X214044627Y-95632037D01*
X214044627Y-95632037D01*
G37*
G36*
X201344627Y-95632037D02*
G01*
X201344630Y-95632038D01*
X201514465Y-95683556D01*
X201670990Y-95767221D01*
X201808185Y-95879815D01*
X201920779Y-96017010D01*
X202004444Y-96173535D01*
X202050070Y-96323947D01*
X202055963Y-96343373D01*
X202073359Y-96520000D01*
X202055963Y-96696627D01*
X202055962Y-96696630D01*
X202004444Y-96866465D01*
X201920779Y-97022990D01*
X201808185Y-97160185D01*
X201670990Y-97272779D01*
X201514465Y-97356444D01*
X201364053Y-97402070D01*
X201344627Y-97407963D01*
X201212258Y-97421000D01*
X201123742Y-97421000D01*
X200991373Y-97407963D01*
X200971947Y-97402070D01*
X200821535Y-97356444D01*
X200665010Y-97272779D01*
X200527815Y-97160185D01*
X200415221Y-97022990D01*
X200331556Y-96866465D01*
X200280038Y-96696630D01*
X200280037Y-96696627D01*
X200262641Y-96520000D01*
X200280037Y-96343373D01*
X200285930Y-96323947D01*
X200331556Y-96173535D01*
X200415221Y-96017010D01*
X200527815Y-95879815D01*
X200665010Y-95767221D01*
X200821535Y-95683556D01*
X200991370Y-95632038D01*
X200991373Y-95632037D01*
X201123742Y-95619000D01*
X201212258Y-95619000D01*
X201344627Y-95632037D01*
X201344627Y-95632037D01*
G37*
G36*
X198804627Y-95632037D02*
G01*
X198804630Y-95632038D01*
X198974465Y-95683556D01*
X199130990Y-95767221D01*
X199268185Y-95879815D01*
X199380779Y-96017010D01*
X199464444Y-96173535D01*
X199510070Y-96323947D01*
X199515963Y-96343373D01*
X199533359Y-96520000D01*
X199515963Y-96696627D01*
X199515962Y-96696630D01*
X199464444Y-96866465D01*
X199380779Y-97022990D01*
X199268185Y-97160185D01*
X199130990Y-97272779D01*
X198974465Y-97356444D01*
X198824053Y-97402070D01*
X198804627Y-97407963D01*
X198672258Y-97421000D01*
X198583742Y-97421000D01*
X198451373Y-97407963D01*
X198431947Y-97402070D01*
X198281535Y-97356444D01*
X198125010Y-97272779D01*
X197987815Y-97160185D01*
X197875221Y-97022990D01*
X197791556Y-96866465D01*
X197740038Y-96696630D01*
X197740037Y-96696627D01*
X197722641Y-96520000D01*
X197740037Y-96343373D01*
X197745930Y-96323947D01*
X197791556Y-96173535D01*
X197875221Y-96017010D01*
X197987815Y-95879815D01*
X198125010Y-95767221D01*
X198281535Y-95683556D01*
X198451370Y-95632038D01*
X198451373Y-95632037D01*
X198583742Y-95619000D01*
X198672258Y-95619000D01*
X198804627Y-95632037D01*
X198804627Y-95632037D01*
G37*
G36*
X203884627Y-95632037D02*
G01*
X203884630Y-95632038D01*
X204054465Y-95683556D01*
X204210990Y-95767221D01*
X204348185Y-95879815D01*
X204460779Y-96017010D01*
X204544444Y-96173535D01*
X204590070Y-96323947D01*
X204595963Y-96343373D01*
X204613359Y-96520000D01*
X204595963Y-96696627D01*
X204595962Y-96696630D01*
X204544444Y-96866465D01*
X204460779Y-97022990D01*
X204348185Y-97160185D01*
X204210990Y-97272779D01*
X204054465Y-97356444D01*
X203904053Y-97402070D01*
X203884627Y-97407963D01*
X203752258Y-97421000D01*
X203663742Y-97421000D01*
X203531373Y-97407963D01*
X203511947Y-97402070D01*
X203361535Y-97356444D01*
X203205010Y-97272779D01*
X203067815Y-97160185D01*
X202955221Y-97022990D01*
X202871556Y-96866465D01*
X202820038Y-96696630D01*
X202820037Y-96696627D01*
X202802641Y-96520000D01*
X202820037Y-96343373D01*
X202825930Y-96323947D01*
X202871556Y-96173535D01*
X202955221Y-96017010D01*
X203067815Y-95879815D01*
X203205010Y-95767221D01*
X203361535Y-95683556D01*
X203531370Y-95632038D01*
X203531373Y-95632037D01*
X203663742Y-95619000D01*
X203752258Y-95619000D01*
X203884627Y-95632037D01*
X203884627Y-95632037D01*
G37*
G36*
X211504627Y-95632037D02*
G01*
X211504630Y-95632038D01*
X211674465Y-95683556D01*
X211830990Y-95767221D01*
X211968185Y-95879815D01*
X212080779Y-96017010D01*
X212164444Y-96173535D01*
X212210070Y-96323947D01*
X212215963Y-96343373D01*
X212233359Y-96520000D01*
X212215963Y-96696627D01*
X212215962Y-96696630D01*
X212164444Y-96866465D01*
X212080779Y-97022990D01*
X211968185Y-97160185D01*
X211830990Y-97272779D01*
X211674465Y-97356444D01*
X211524053Y-97402070D01*
X211504627Y-97407963D01*
X211372258Y-97421000D01*
X211283742Y-97421000D01*
X211151373Y-97407963D01*
X211131947Y-97402070D01*
X210981535Y-97356444D01*
X210825010Y-97272779D01*
X210687815Y-97160185D01*
X210575221Y-97022990D01*
X210491556Y-96866465D01*
X210440038Y-96696630D01*
X210440037Y-96696627D01*
X210422641Y-96520000D01*
X210440037Y-96343373D01*
X210445930Y-96323947D01*
X210491556Y-96173535D01*
X210575221Y-96017010D01*
X210687815Y-95879815D01*
X210825010Y-95767221D01*
X210981535Y-95683556D01*
X211151370Y-95632038D01*
X211151373Y-95632037D01*
X211283742Y-95619000D01*
X211372258Y-95619000D01*
X211504627Y-95632037D01*
X211504627Y-95632037D01*
G37*
G36*
X196264627Y-95632037D02*
G01*
X196264630Y-95632038D01*
X196434465Y-95683556D01*
X196590990Y-95767221D01*
X196728185Y-95879815D01*
X196840779Y-96017010D01*
X196924444Y-96173535D01*
X196970070Y-96323947D01*
X196975963Y-96343373D01*
X196993359Y-96520000D01*
X196975963Y-96696627D01*
X196975962Y-96696630D01*
X196924444Y-96866465D01*
X196840779Y-97022990D01*
X196728185Y-97160185D01*
X196590990Y-97272779D01*
X196434465Y-97356444D01*
X196284053Y-97402070D01*
X196264627Y-97407963D01*
X196132258Y-97421000D01*
X196043742Y-97421000D01*
X195911373Y-97407963D01*
X195891947Y-97402070D01*
X195741535Y-97356444D01*
X195585010Y-97272779D01*
X195447815Y-97160185D01*
X195335221Y-97022990D01*
X195251556Y-96866465D01*
X195200038Y-96696630D01*
X195200037Y-96696627D01*
X195182641Y-96520000D01*
X195200037Y-96343373D01*
X195205930Y-96323947D01*
X195251556Y-96173535D01*
X195335221Y-96017010D01*
X195447815Y-95879815D01*
X195585010Y-95767221D01*
X195741535Y-95683556D01*
X195911370Y-95632038D01*
X195911373Y-95632037D01*
X196043742Y-95619000D01*
X196132258Y-95619000D01*
X196264627Y-95632037D01*
X196264627Y-95632037D01*
G37*
G36*
X208964627Y-95632037D02*
G01*
X208964630Y-95632038D01*
X209134465Y-95683556D01*
X209290990Y-95767221D01*
X209428185Y-95879815D01*
X209540779Y-96017010D01*
X209624444Y-96173535D01*
X209670070Y-96323947D01*
X209675963Y-96343373D01*
X209693359Y-96520000D01*
X209675963Y-96696627D01*
X209675962Y-96696630D01*
X209624444Y-96866465D01*
X209540779Y-97022990D01*
X209428185Y-97160185D01*
X209290990Y-97272779D01*
X209134465Y-97356444D01*
X208984053Y-97402070D01*
X208964627Y-97407963D01*
X208832258Y-97421000D01*
X208743742Y-97421000D01*
X208611373Y-97407963D01*
X208591947Y-97402070D01*
X208441535Y-97356444D01*
X208285010Y-97272779D01*
X208147815Y-97160185D01*
X208035221Y-97022990D01*
X207951556Y-96866465D01*
X207900038Y-96696630D01*
X207900037Y-96696627D01*
X207882641Y-96520000D01*
X207900037Y-96343373D01*
X207905930Y-96323947D01*
X207951556Y-96173535D01*
X208035221Y-96017010D01*
X208147815Y-95879815D01*
X208285010Y-95767221D01*
X208441535Y-95683556D01*
X208611370Y-95632038D01*
X208611373Y-95632037D01*
X208743742Y-95619000D01*
X208832258Y-95619000D01*
X208964627Y-95632037D01*
X208964627Y-95632037D01*
G37*
G36*
X206424627Y-95632037D02*
G01*
X206424630Y-95632038D01*
X206594465Y-95683556D01*
X206750990Y-95767221D01*
X206888185Y-95879815D01*
X207000779Y-96017010D01*
X207084444Y-96173535D01*
X207130070Y-96323947D01*
X207135963Y-96343373D01*
X207153359Y-96520000D01*
X207135963Y-96696627D01*
X207135962Y-96696630D01*
X207084444Y-96866465D01*
X207000779Y-97022990D01*
X206888185Y-97160185D01*
X206750990Y-97272779D01*
X206594465Y-97356444D01*
X206444053Y-97402070D01*
X206424627Y-97407963D01*
X206292258Y-97421000D01*
X206203742Y-97421000D01*
X206071373Y-97407963D01*
X206051947Y-97402070D01*
X205901535Y-97356444D01*
X205745010Y-97272779D01*
X205607815Y-97160185D01*
X205495221Y-97022990D01*
X205411556Y-96866465D01*
X205360038Y-96696630D01*
X205360037Y-96696627D01*
X205342641Y-96520000D01*
X205360037Y-96343373D01*
X205365930Y-96323947D01*
X205411556Y-96173535D01*
X205495221Y-96017010D01*
X205607815Y-95879815D01*
X205745010Y-95767221D01*
X205901535Y-95683556D01*
X206071370Y-95632038D01*
X206071373Y-95632037D01*
X206203742Y-95619000D01*
X206292258Y-95619000D01*
X206424627Y-95632037D01*
X206424627Y-95632037D01*
G37*
G36*
X193724627Y-95632037D02*
G01*
X193724630Y-95632038D01*
X193894465Y-95683556D01*
X194050990Y-95767221D01*
X194188185Y-95879815D01*
X194300779Y-96017010D01*
X194384444Y-96173535D01*
X194430070Y-96323947D01*
X194435963Y-96343373D01*
X194453359Y-96520000D01*
X194435963Y-96696627D01*
X194435962Y-96696630D01*
X194384444Y-96866465D01*
X194300779Y-97022990D01*
X194188185Y-97160185D01*
X194050990Y-97272779D01*
X193894465Y-97356444D01*
X193744053Y-97402070D01*
X193724627Y-97407963D01*
X193592258Y-97421000D01*
X193503742Y-97421000D01*
X193371373Y-97407963D01*
X193351947Y-97402070D01*
X193201535Y-97356444D01*
X193045010Y-97272779D01*
X192907815Y-97160185D01*
X192795221Y-97022990D01*
X192711556Y-96866465D01*
X192660038Y-96696630D01*
X192660037Y-96696627D01*
X192642641Y-96520000D01*
X192660037Y-96343373D01*
X192665930Y-96323947D01*
X192711556Y-96173535D01*
X192795221Y-96017010D01*
X192907815Y-95879815D01*
X193045010Y-95767221D01*
X193201535Y-95683556D01*
X193371370Y-95632038D01*
X193371373Y-95632037D01*
X193503742Y-95619000D01*
X193592258Y-95619000D01*
X193724627Y-95632037D01*
X193724627Y-95632037D01*
G37*
G36*
X191909000Y-97421000D02*
G01*
X190107000Y-97421000D01*
X190107000Y-95619000D01*
X191909000Y-95619000D01*
X191909000Y-97421000D01*
X191909000Y-97421000D01*
G37*
G36*
X221664627Y-95632037D02*
G01*
X221664630Y-95632038D01*
X221834465Y-95683556D01*
X221990990Y-95767221D01*
X222128185Y-95879815D01*
X222240779Y-96017010D01*
X222324444Y-96173535D01*
X222370070Y-96323947D01*
X222375963Y-96343373D01*
X222393359Y-96520000D01*
X222375963Y-96696627D01*
X222375962Y-96696630D01*
X222324444Y-96866465D01*
X222240779Y-97022990D01*
X222128185Y-97160185D01*
X221990990Y-97272779D01*
X221834465Y-97356444D01*
X221684053Y-97402070D01*
X221664627Y-97407963D01*
X221532258Y-97421000D01*
X221443742Y-97421000D01*
X221311373Y-97407963D01*
X221291947Y-97402070D01*
X221141535Y-97356444D01*
X220985010Y-97272779D01*
X220847815Y-97160185D01*
X220735221Y-97022990D01*
X220651556Y-96866465D01*
X220600038Y-96696630D01*
X220600037Y-96696627D01*
X220582641Y-96520000D01*
X220600037Y-96343373D01*
X220605930Y-96323947D01*
X220651556Y-96173535D01*
X220735221Y-96017010D01*
X220847815Y-95879815D01*
X220985010Y-95767221D01*
X221141535Y-95683556D01*
X221311370Y-95632038D01*
X221311373Y-95632037D01*
X221443742Y-95619000D01*
X221532258Y-95619000D01*
X221664627Y-95632037D01*
X221664627Y-95632037D01*
G37*
G36*
X219124627Y-95632037D02*
G01*
X219124630Y-95632038D01*
X219294465Y-95683556D01*
X219450990Y-95767221D01*
X219588185Y-95879815D01*
X219700779Y-96017010D01*
X219784444Y-96173535D01*
X219830070Y-96323947D01*
X219835963Y-96343373D01*
X219853359Y-96520000D01*
X219835963Y-96696627D01*
X219835962Y-96696630D01*
X219784444Y-96866465D01*
X219700779Y-97022990D01*
X219588185Y-97160185D01*
X219450990Y-97272779D01*
X219294465Y-97356444D01*
X219144053Y-97402070D01*
X219124627Y-97407963D01*
X218992258Y-97421000D01*
X218903742Y-97421000D01*
X218771373Y-97407963D01*
X218751947Y-97402070D01*
X218601535Y-97356444D01*
X218445010Y-97272779D01*
X218307815Y-97160185D01*
X218195221Y-97022990D01*
X218111556Y-96866465D01*
X218060038Y-96696630D01*
X218060037Y-96696627D01*
X218042641Y-96520000D01*
X218060037Y-96343373D01*
X218065930Y-96323947D01*
X218111556Y-96173535D01*
X218195221Y-96017010D01*
X218307815Y-95879815D01*
X218445010Y-95767221D01*
X218601535Y-95683556D01*
X218771370Y-95632038D01*
X218771373Y-95632037D01*
X218903742Y-95619000D01*
X218992258Y-95619000D01*
X219124627Y-95632037D01*
X219124627Y-95632037D01*
G37*
G36*
X219124627Y-93092037D02*
G01*
X219124630Y-93092038D01*
X219294465Y-93143556D01*
X219450990Y-93227221D01*
X219588185Y-93339815D01*
X219700779Y-93477010D01*
X219784444Y-93633535D01*
X219830070Y-93783947D01*
X219835963Y-93803373D01*
X219853359Y-93980000D01*
X219835963Y-94156627D01*
X219835962Y-94156630D01*
X219784444Y-94326465D01*
X219700779Y-94482990D01*
X219588185Y-94620185D01*
X219450990Y-94732779D01*
X219294465Y-94816444D01*
X219144053Y-94862070D01*
X219124627Y-94867963D01*
X218992258Y-94881000D01*
X218903742Y-94881000D01*
X218771373Y-94867963D01*
X218751947Y-94862070D01*
X218601535Y-94816444D01*
X218445010Y-94732779D01*
X218307815Y-94620185D01*
X218195221Y-94482990D01*
X218111556Y-94326465D01*
X218060038Y-94156630D01*
X218060037Y-94156627D01*
X218042641Y-93980000D01*
X218060037Y-93803373D01*
X218065930Y-93783947D01*
X218111556Y-93633535D01*
X218195221Y-93477010D01*
X218307815Y-93339815D01*
X218445010Y-93227221D01*
X218601535Y-93143556D01*
X218771370Y-93092038D01*
X218771373Y-93092037D01*
X218903742Y-93079000D01*
X218992258Y-93079000D01*
X219124627Y-93092037D01*
X219124627Y-93092037D01*
G37*
G36*
X216584627Y-93092037D02*
G01*
X216584630Y-93092038D01*
X216754465Y-93143556D01*
X216910990Y-93227221D01*
X217048185Y-93339815D01*
X217160779Y-93477010D01*
X217244444Y-93633535D01*
X217290070Y-93783947D01*
X217295963Y-93803373D01*
X217313359Y-93980000D01*
X217295963Y-94156627D01*
X217295962Y-94156630D01*
X217244444Y-94326465D01*
X217160779Y-94482990D01*
X217048185Y-94620185D01*
X216910990Y-94732779D01*
X216754465Y-94816444D01*
X216604053Y-94862070D01*
X216584627Y-94867963D01*
X216452258Y-94881000D01*
X216363742Y-94881000D01*
X216231373Y-94867963D01*
X216211947Y-94862070D01*
X216061535Y-94816444D01*
X215905010Y-94732779D01*
X215767815Y-94620185D01*
X215655221Y-94482990D01*
X215571556Y-94326465D01*
X215520038Y-94156630D01*
X215520037Y-94156627D01*
X215502641Y-93980000D01*
X215520037Y-93803373D01*
X215525930Y-93783947D01*
X215571556Y-93633535D01*
X215655221Y-93477010D01*
X215767815Y-93339815D01*
X215905010Y-93227221D01*
X216061535Y-93143556D01*
X216231370Y-93092038D01*
X216231373Y-93092037D01*
X216363742Y-93079000D01*
X216452258Y-93079000D01*
X216584627Y-93092037D01*
X216584627Y-93092037D01*
G37*
G36*
X214044627Y-93092037D02*
G01*
X214044630Y-93092038D01*
X214214465Y-93143556D01*
X214370990Y-93227221D01*
X214508185Y-93339815D01*
X214620779Y-93477010D01*
X214704444Y-93633535D01*
X214750070Y-93783947D01*
X214755963Y-93803373D01*
X214773359Y-93980000D01*
X214755963Y-94156627D01*
X214755962Y-94156630D01*
X214704444Y-94326465D01*
X214620779Y-94482990D01*
X214508185Y-94620185D01*
X214370990Y-94732779D01*
X214214465Y-94816444D01*
X214064053Y-94862070D01*
X214044627Y-94867963D01*
X213912258Y-94881000D01*
X213823742Y-94881000D01*
X213691373Y-94867963D01*
X213671947Y-94862070D01*
X213521535Y-94816444D01*
X213365010Y-94732779D01*
X213227815Y-94620185D01*
X213115221Y-94482990D01*
X213031556Y-94326465D01*
X212980038Y-94156630D01*
X212980037Y-94156627D01*
X212962641Y-93980000D01*
X212980037Y-93803373D01*
X212985930Y-93783947D01*
X213031556Y-93633535D01*
X213115221Y-93477010D01*
X213227815Y-93339815D01*
X213365010Y-93227221D01*
X213521535Y-93143556D01*
X213691370Y-93092038D01*
X213691373Y-93092037D01*
X213823742Y-93079000D01*
X213912258Y-93079000D01*
X214044627Y-93092037D01*
X214044627Y-93092037D01*
G37*
G36*
X211504627Y-93092037D02*
G01*
X211504630Y-93092038D01*
X211674465Y-93143556D01*
X211830990Y-93227221D01*
X211968185Y-93339815D01*
X212080779Y-93477010D01*
X212164444Y-93633535D01*
X212210070Y-93783947D01*
X212215963Y-93803373D01*
X212233359Y-93980000D01*
X212215963Y-94156627D01*
X212215962Y-94156630D01*
X212164444Y-94326465D01*
X212080779Y-94482990D01*
X211968185Y-94620185D01*
X211830990Y-94732779D01*
X211674465Y-94816444D01*
X211524053Y-94862070D01*
X211504627Y-94867963D01*
X211372258Y-94881000D01*
X211283742Y-94881000D01*
X211151373Y-94867963D01*
X211131947Y-94862070D01*
X210981535Y-94816444D01*
X210825010Y-94732779D01*
X210687815Y-94620185D01*
X210575221Y-94482990D01*
X210491556Y-94326465D01*
X210440038Y-94156630D01*
X210440037Y-94156627D01*
X210422641Y-93980000D01*
X210440037Y-93803373D01*
X210445930Y-93783947D01*
X210491556Y-93633535D01*
X210575221Y-93477010D01*
X210687815Y-93339815D01*
X210825010Y-93227221D01*
X210981535Y-93143556D01*
X211151370Y-93092038D01*
X211151373Y-93092037D01*
X211283742Y-93079000D01*
X211372258Y-93079000D01*
X211504627Y-93092037D01*
X211504627Y-93092037D01*
G37*
G36*
X191184627Y-93092037D02*
G01*
X191184630Y-93092038D01*
X191354465Y-93143556D01*
X191510990Y-93227221D01*
X191648185Y-93339815D01*
X191760779Y-93477010D01*
X191844444Y-93633535D01*
X191890070Y-93783947D01*
X191895963Y-93803373D01*
X191913359Y-93980000D01*
X191895963Y-94156627D01*
X191895962Y-94156630D01*
X191844444Y-94326465D01*
X191760779Y-94482990D01*
X191648185Y-94620185D01*
X191510990Y-94732779D01*
X191354465Y-94816444D01*
X191204053Y-94862070D01*
X191184627Y-94867963D01*
X191052258Y-94881000D01*
X190963742Y-94881000D01*
X190831373Y-94867963D01*
X190811947Y-94862070D01*
X190661535Y-94816444D01*
X190505010Y-94732779D01*
X190367815Y-94620185D01*
X190255221Y-94482990D01*
X190171556Y-94326465D01*
X190120038Y-94156630D01*
X190120037Y-94156627D01*
X190102641Y-93980000D01*
X190120037Y-93803373D01*
X190125930Y-93783947D01*
X190171556Y-93633535D01*
X190255221Y-93477010D01*
X190367815Y-93339815D01*
X190505010Y-93227221D01*
X190661535Y-93143556D01*
X190831370Y-93092038D01*
X190831373Y-93092037D01*
X190963742Y-93079000D01*
X191052258Y-93079000D01*
X191184627Y-93092037D01*
X191184627Y-93092037D01*
G37*
G36*
X196264627Y-93092037D02*
G01*
X196264630Y-93092038D01*
X196434465Y-93143556D01*
X196590990Y-93227221D01*
X196728185Y-93339815D01*
X196840779Y-93477010D01*
X196924444Y-93633535D01*
X196970070Y-93783947D01*
X196975963Y-93803373D01*
X196993359Y-93980000D01*
X196975963Y-94156627D01*
X196975962Y-94156630D01*
X196924444Y-94326465D01*
X196840779Y-94482990D01*
X196728185Y-94620185D01*
X196590990Y-94732779D01*
X196434465Y-94816444D01*
X196284053Y-94862070D01*
X196264627Y-94867963D01*
X196132258Y-94881000D01*
X196043742Y-94881000D01*
X195911373Y-94867963D01*
X195891947Y-94862070D01*
X195741535Y-94816444D01*
X195585010Y-94732779D01*
X195447815Y-94620185D01*
X195335221Y-94482990D01*
X195251556Y-94326465D01*
X195200038Y-94156630D01*
X195200037Y-94156627D01*
X195182641Y-93980000D01*
X195200037Y-93803373D01*
X195205930Y-93783947D01*
X195251556Y-93633535D01*
X195335221Y-93477010D01*
X195447815Y-93339815D01*
X195585010Y-93227221D01*
X195741535Y-93143556D01*
X195911370Y-93092038D01*
X195911373Y-93092037D01*
X196043742Y-93079000D01*
X196132258Y-93079000D01*
X196264627Y-93092037D01*
X196264627Y-93092037D01*
G37*
G36*
X201344627Y-93092037D02*
G01*
X201344630Y-93092038D01*
X201514465Y-93143556D01*
X201670990Y-93227221D01*
X201808185Y-93339815D01*
X201920779Y-93477010D01*
X202004444Y-93633535D01*
X202050070Y-93783947D01*
X202055963Y-93803373D01*
X202073359Y-93980000D01*
X202055963Y-94156627D01*
X202055962Y-94156630D01*
X202004444Y-94326465D01*
X201920779Y-94482990D01*
X201808185Y-94620185D01*
X201670990Y-94732779D01*
X201514465Y-94816444D01*
X201364053Y-94862070D01*
X201344627Y-94867963D01*
X201212258Y-94881000D01*
X201123742Y-94881000D01*
X200991373Y-94867963D01*
X200971947Y-94862070D01*
X200821535Y-94816444D01*
X200665010Y-94732779D01*
X200527815Y-94620185D01*
X200415221Y-94482990D01*
X200331556Y-94326465D01*
X200280038Y-94156630D01*
X200280037Y-94156627D01*
X200262641Y-93980000D01*
X200280037Y-93803373D01*
X200285930Y-93783947D01*
X200331556Y-93633535D01*
X200415221Y-93477010D01*
X200527815Y-93339815D01*
X200665010Y-93227221D01*
X200821535Y-93143556D01*
X200991370Y-93092038D01*
X200991373Y-93092037D01*
X201123742Y-93079000D01*
X201212258Y-93079000D01*
X201344627Y-93092037D01*
X201344627Y-93092037D01*
G37*
G36*
X203884627Y-93092037D02*
G01*
X203884630Y-93092038D01*
X204054465Y-93143556D01*
X204210990Y-93227221D01*
X204348185Y-93339815D01*
X204460779Y-93477010D01*
X204544444Y-93633535D01*
X204590070Y-93783947D01*
X204595963Y-93803373D01*
X204613359Y-93980000D01*
X204595963Y-94156627D01*
X204595962Y-94156630D01*
X204544444Y-94326465D01*
X204460779Y-94482990D01*
X204348185Y-94620185D01*
X204210990Y-94732779D01*
X204054465Y-94816444D01*
X203904053Y-94862070D01*
X203884627Y-94867963D01*
X203752258Y-94881000D01*
X203663742Y-94881000D01*
X203531373Y-94867963D01*
X203511947Y-94862070D01*
X203361535Y-94816444D01*
X203205010Y-94732779D01*
X203067815Y-94620185D01*
X202955221Y-94482990D01*
X202871556Y-94326465D01*
X202820038Y-94156630D01*
X202820037Y-94156627D01*
X202802641Y-93980000D01*
X202820037Y-93803373D01*
X202825930Y-93783947D01*
X202871556Y-93633535D01*
X202955221Y-93477010D01*
X203067815Y-93339815D01*
X203205010Y-93227221D01*
X203361535Y-93143556D01*
X203531370Y-93092038D01*
X203531373Y-93092037D01*
X203663742Y-93079000D01*
X203752258Y-93079000D01*
X203884627Y-93092037D01*
X203884627Y-93092037D01*
G37*
G36*
X208964627Y-93092037D02*
G01*
X208964630Y-93092038D01*
X209134465Y-93143556D01*
X209290990Y-93227221D01*
X209428185Y-93339815D01*
X209540779Y-93477010D01*
X209624444Y-93633535D01*
X209670070Y-93783947D01*
X209675963Y-93803373D01*
X209693359Y-93980000D01*
X209675963Y-94156627D01*
X209675962Y-94156630D01*
X209624444Y-94326465D01*
X209540779Y-94482990D01*
X209428185Y-94620185D01*
X209290990Y-94732779D01*
X209134465Y-94816444D01*
X208984053Y-94862070D01*
X208964627Y-94867963D01*
X208832258Y-94881000D01*
X208743742Y-94881000D01*
X208611373Y-94867963D01*
X208591947Y-94862070D01*
X208441535Y-94816444D01*
X208285010Y-94732779D01*
X208147815Y-94620185D01*
X208035221Y-94482990D01*
X207951556Y-94326465D01*
X207900038Y-94156630D01*
X207900037Y-94156627D01*
X207882641Y-93980000D01*
X207900037Y-93803373D01*
X207905930Y-93783947D01*
X207951556Y-93633535D01*
X208035221Y-93477010D01*
X208147815Y-93339815D01*
X208285010Y-93227221D01*
X208441535Y-93143556D01*
X208611370Y-93092038D01*
X208611373Y-93092037D01*
X208743742Y-93079000D01*
X208832258Y-93079000D01*
X208964627Y-93092037D01*
X208964627Y-93092037D01*
G37*
G36*
X198804627Y-93092037D02*
G01*
X198804630Y-93092038D01*
X198974465Y-93143556D01*
X199130990Y-93227221D01*
X199268185Y-93339815D01*
X199380779Y-93477010D01*
X199464444Y-93633535D01*
X199510070Y-93783947D01*
X199515963Y-93803373D01*
X199533359Y-93980000D01*
X199515963Y-94156627D01*
X199515962Y-94156630D01*
X199464444Y-94326465D01*
X199380779Y-94482990D01*
X199268185Y-94620185D01*
X199130990Y-94732779D01*
X198974465Y-94816444D01*
X198824053Y-94862070D01*
X198804627Y-94867963D01*
X198672258Y-94881000D01*
X198583742Y-94881000D01*
X198451373Y-94867963D01*
X198431947Y-94862070D01*
X198281535Y-94816444D01*
X198125010Y-94732779D01*
X197987815Y-94620185D01*
X197875221Y-94482990D01*
X197791556Y-94326465D01*
X197740038Y-94156630D01*
X197740037Y-94156627D01*
X197722641Y-93980000D01*
X197740037Y-93803373D01*
X197745930Y-93783947D01*
X197791556Y-93633535D01*
X197875221Y-93477010D01*
X197987815Y-93339815D01*
X198125010Y-93227221D01*
X198281535Y-93143556D01*
X198451370Y-93092038D01*
X198451373Y-93092037D01*
X198583742Y-93079000D01*
X198672258Y-93079000D01*
X198804627Y-93092037D01*
X198804627Y-93092037D01*
G37*
G36*
X206424627Y-93092037D02*
G01*
X206424630Y-93092038D01*
X206594465Y-93143556D01*
X206750990Y-93227221D01*
X206888185Y-93339815D01*
X207000779Y-93477010D01*
X207084444Y-93633535D01*
X207130070Y-93783947D01*
X207135963Y-93803373D01*
X207153359Y-93980000D01*
X207135963Y-94156627D01*
X207135962Y-94156630D01*
X207084444Y-94326465D01*
X207000779Y-94482990D01*
X206888185Y-94620185D01*
X206750990Y-94732779D01*
X206594465Y-94816444D01*
X206444053Y-94862070D01*
X206424627Y-94867963D01*
X206292258Y-94881000D01*
X206203742Y-94881000D01*
X206071373Y-94867963D01*
X206051947Y-94862070D01*
X205901535Y-94816444D01*
X205745010Y-94732779D01*
X205607815Y-94620185D01*
X205495221Y-94482990D01*
X205411556Y-94326465D01*
X205360038Y-94156630D01*
X205360037Y-94156627D01*
X205342641Y-93980000D01*
X205360037Y-93803373D01*
X205365930Y-93783947D01*
X205411556Y-93633535D01*
X205495221Y-93477010D01*
X205607815Y-93339815D01*
X205745010Y-93227221D01*
X205901535Y-93143556D01*
X206071370Y-93092038D01*
X206071373Y-93092037D01*
X206203742Y-93079000D01*
X206292258Y-93079000D01*
X206424627Y-93092037D01*
X206424627Y-93092037D01*
G37*
G36*
X221664627Y-93092037D02*
G01*
X221664630Y-93092038D01*
X221834465Y-93143556D01*
X221990990Y-93227221D01*
X222128185Y-93339815D01*
X222240779Y-93477010D01*
X222324444Y-93633535D01*
X222370070Y-93783947D01*
X222375963Y-93803373D01*
X222393359Y-93980000D01*
X222375963Y-94156627D01*
X222375962Y-94156630D01*
X222324444Y-94326465D01*
X222240779Y-94482990D01*
X222128185Y-94620185D01*
X221990990Y-94732779D01*
X221834465Y-94816444D01*
X221684053Y-94862070D01*
X221664627Y-94867963D01*
X221532258Y-94881000D01*
X221443742Y-94881000D01*
X221311373Y-94867963D01*
X221291947Y-94862070D01*
X221141535Y-94816444D01*
X220985010Y-94732779D01*
X220847815Y-94620185D01*
X220735221Y-94482990D01*
X220651556Y-94326465D01*
X220600038Y-94156630D01*
X220600037Y-94156627D01*
X220582641Y-93980000D01*
X220600037Y-93803373D01*
X220605930Y-93783947D01*
X220651556Y-93633535D01*
X220735221Y-93477010D01*
X220847815Y-93339815D01*
X220985010Y-93227221D01*
X221141535Y-93143556D01*
X221311370Y-93092038D01*
X221311373Y-93092037D01*
X221443742Y-93079000D01*
X221532258Y-93079000D01*
X221664627Y-93092037D01*
X221664627Y-93092037D01*
G37*
G36*
X193724627Y-93092037D02*
G01*
X193724630Y-93092038D01*
X193894465Y-93143556D01*
X194050990Y-93227221D01*
X194188185Y-93339815D01*
X194300779Y-93477010D01*
X194384444Y-93633535D01*
X194430070Y-93783947D01*
X194435963Y-93803373D01*
X194453359Y-93980000D01*
X194435963Y-94156627D01*
X194435962Y-94156630D01*
X194384444Y-94326465D01*
X194300779Y-94482990D01*
X194188185Y-94620185D01*
X194050990Y-94732779D01*
X193894465Y-94816444D01*
X193744053Y-94862070D01*
X193724627Y-94867963D01*
X193592258Y-94881000D01*
X193503742Y-94881000D01*
X193371373Y-94867963D01*
X193351947Y-94862070D01*
X193201535Y-94816444D01*
X193045010Y-94732779D01*
X192907815Y-94620185D01*
X192795221Y-94482990D01*
X192711556Y-94326465D01*
X192660038Y-94156630D01*
X192660037Y-94156627D01*
X192642641Y-93980000D01*
X192660037Y-93803373D01*
X192665930Y-93783947D01*
X192711556Y-93633535D01*
X192795221Y-93477010D01*
X192907815Y-93339815D01*
X193045010Y-93227221D01*
X193201535Y-93143556D01*
X193371370Y-93092038D01*
X193371373Y-93092037D01*
X193503742Y-93079000D01*
X193592258Y-93079000D01*
X193724627Y-93092037D01*
X193724627Y-93092037D01*
G37*
G36*
X185151000Y-94551000D02*
G01*
X183149000Y-94551000D01*
X183149000Y-92849000D01*
X185151000Y-92849000D01*
X185151000Y-94551000D01*
X185151000Y-94551000D01*
G37*
G36*
X229601000Y-94551000D02*
G01*
X227599000Y-94551000D01*
X227599000Y-92849000D01*
X229601000Y-92849000D01*
X229601000Y-94551000D01*
X229601000Y-94551000D01*
G37*
G36*
X183564627Y-88012037D02*
G01*
X183564630Y-88012038D01*
X183734465Y-88063556D01*
X183890990Y-88147221D01*
X184028185Y-88259815D01*
X184140779Y-88397010D01*
X184224444Y-88553535D01*
X184270070Y-88703947D01*
X184275963Y-88723373D01*
X184293359Y-88900000D01*
X184275963Y-89076627D01*
X184275962Y-89076630D01*
X184224444Y-89246465D01*
X184140779Y-89402990D01*
X184028185Y-89540185D01*
X183890990Y-89652779D01*
X183734465Y-89736444D01*
X183584053Y-89782070D01*
X183564627Y-89787963D01*
X183432258Y-89801000D01*
X183343742Y-89801000D01*
X183211373Y-89787963D01*
X183191947Y-89782070D01*
X183041535Y-89736444D01*
X182885010Y-89652779D01*
X182747815Y-89540185D01*
X182635221Y-89402990D01*
X182551556Y-89246465D01*
X182500038Y-89076630D01*
X182500037Y-89076627D01*
X182482641Y-88900000D01*
X182500037Y-88723373D01*
X182505930Y-88703947D01*
X182551556Y-88553535D01*
X182635221Y-88397010D01*
X182747815Y-88259815D01*
X182885010Y-88147221D01*
X183041535Y-88063556D01*
X183211370Y-88012038D01*
X183211373Y-88012037D01*
X183343742Y-87999000D01*
X183432258Y-87999000D01*
X183564627Y-88012037D01*
X183564627Y-88012037D01*
G37*
G36*
X230009000Y-89801000D02*
G01*
X228207000Y-89801000D01*
X228207000Y-87999000D01*
X230009000Y-87999000D01*
X230009000Y-89801000D01*
X230009000Y-89801000D01*
G37*
G36*
X186104627Y-88012037D02*
G01*
X186104630Y-88012038D01*
X186274465Y-88063556D01*
X186430990Y-88147221D01*
X186568185Y-88259815D01*
X186680779Y-88397010D01*
X186764444Y-88553535D01*
X186810070Y-88703947D01*
X186815963Y-88723373D01*
X186833359Y-88900000D01*
X186815963Y-89076627D01*
X186815962Y-89076630D01*
X186764444Y-89246465D01*
X186680779Y-89402990D01*
X186568185Y-89540185D01*
X186430990Y-89652779D01*
X186274465Y-89736444D01*
X186124053Y-89782070D01*
X186104627Y-89787963D01*
X185972258Y-89801000D01*
X185883742Y-89801000D01*
X185751373Y-89787963D01*
X185731947Y-89782070D01*
X185581535Y-89736444D01*
X185425010Y-89652779D01*
X185287815Y-89540185D01*
X185175221Y-89402990D01*
X185091556Y-89246465D01*
X185040038Y-89076630D01*
X185040037Y-89076627D01*
X185022641Y-88900000D01*
X185040037Y-88723373D01*
X185045930Y-88703947D01*
X185091556Y-88553535D01*
X185175221Y-88397010D01*
X185287815Y-88259815D01*
X185425010Y-88147221D01*
X185581535Y-88063556D01*
X185751370Y-88012038D01*
X185751373Y-88012037D01*
X185883742Y-87999000D01*
X185972258Y-87999000D01*
X186104627Y-88012037D01*
X186104627Y-88012037D01*
G37*
G36*
X226744627Y-88012037D02*
G01*
X226744630Y-88012038D01*
X226914465Y-88063556D01*
X227070990Y-88147221D01*
X227208185Y-88259815D01*
X227320779Y-88397010D01*
X227404444Y-88553535D01*
X227450070Y-88703947D01*
X227455963Y-88723373D01*
X227473359Y-88900000D01*
X227455963Y-89076627D01*
X227455962Y-89076630D01*
X227404444Y-89246465D01*
X227320779Y-89402990D01*
X227208185Y-89540185D01*
X227070990Y-89652779D01*
X226914465Y-89736444D01*
X226764053Y-89782070D01*
X226744627Y-89787963D01*
X226612258Y-89801000D01*
X226523742Y-89801000D01*
X226391373Y-89787963D01*
X226371947Y-89782070D01*
X226221535Y-89736444D01*
X226065010Y-89652779D01*
X225927815Y-89540185D01*
X225815221Y-89402990D01*
X225731556Y-89246465D01*
X225680038Y-89076630D01*
X225680037Y-89076627D01*
X225662641Y-88900000D01*
X225680037Y-88723373D01*
X225685930Y-88703947D01*
X225731556Y-88553535D01*
X225815221Y-88397010D01*
X225927815Y-88259815D01*
X226065010Y-88147221D01*
X226221535Y-88063556D01*
X226391370Y-88012038D01*
X226391373Y-88012037D01*
X226523742Y-87999000D01*
X226612258Y-87999000D01*
X226744627Y-88012037D01*
X226744627Y-88012037D01*
G37*
G36*
X229284627Y-85472037D02*
G01*
X229284630Y-85472038D01*
X229454465Y-85523556D01*
X229610990Y-85607221D01*
X229748185Y-85719815D01*
X229860779Y-85857010D01*
X229944444Y-86013535D01*
X229951890Y-86038082D01*
X229995963Y-86183373D01*
X230013359Y-86360000D01*
X229995963Y-86536627D01*
X229995962Y-86536630D01*
X229944444Y-86706465D01*
X229860779Y-86862990D01*
X229748185Y-87000185D01*
X229610990Y-87112779D01*
X229454465Y-87196444D01*
X229305679Y-87241577D01*
X229284627Y-87247963D01*
X229152258Y-87261000D01*
X229063742Y-87261000D01*
X228931373Y-87247963D01*
X228910321Y-87241577D01*
X228761535Y-87196444D01*
X228605010Y-87112779D01*
X228467815Y-87000185D01*
X228355221Y-86862990D01*
X228271556Y-86706465D01*
X228220038Y-86536630D01*
X228220037Y-86536627D01*
X228202641Y-86360000D01*
X228220037Y-86183373D01*
X228264110Y-86038082D01*
X228271556Y-86013535D01*
X228355221Y-85857010D01*
X228467815Y-85719815D01*
X228605010Y-85607221D01*
X228761535Y-85523556D01*
X228931370Y-85472038D01*
X228931373Y-85472037D01*
X229063742Y-85459000D01*
X229152258Y-85459000D01*
X229284627Y-85472037D01*
X229284627Y-85472037D01*
G37*
G36*
X226744627Y-85472037D02*
G01*
X226744630Y-85472038D01*
X226914465Y-85523556D01*
X227070990Y-85607221D01*
X227208185Y-85719815D01*
X227320779Y-85857010D01*
X227404444Y-86013535D01*
X227411890Y-86038082D01*
X227455963Y-86183373D01*
X227473359Y-86360000D01*
X227455963Y-86536627D01*
X227455962Y-86536630D01*
X227404444Y-86706465D01*
X227320779Y-86862990D01*
X227208185Y-87000185D01*
X227070990Y-87112779D01*
X226914465Y-87196444D01*
X226765679Y-87241577D01*
X226744627Y-87247963D01*
X226612258Y-87261000D01*
X226523742Y-87261000D01*
X226391373Y-87247963D01*
X226370321Y-87241577D01*
X226221535Y-87196444D01*
X226065010Y-87112779D01*
X225927815Y-87000185D01*
X225815221Y-86862990D01*
X225731556Y-86706465D01*
X225680038Y-86536630D01*
X225680037Y-86536627D01*
X225662641Y-86360000D01*
X225680037Y-86183373D01*
X225724110Y-86038082D01*
X225731556Y-86013535D01*
X225815221Y-85857010D01*
X225927815Y-85719815D01*
X226065010Y-85607221D01*
X226221535Y-85523556D01*
X226391370Y-85472038D01*
X226391373Y-85472037D01*
X226523742Y-85459000D01*
X226612258Y-85459000D01*
X226744627Y-85472037D01*
X226744627Y-85472037D01*
G37*
G36*
X186104627Y-85472037D02*
G01*
X186104630Y-85472038D01*
X186274465Y-85523556D01*
X186430990Y-85607221D01*
X186568185Y-85719815D01*
X186680779Y-85857010D01*
X186764444Y-86013535D01*
X186771890Y-86038082D01*
X186815963Y-86183373D01*
X186833359Y-86360000D01*
X186815963Y-86536627D01*
X186815962Y-86536630D01*
X186764444Y-86706465D01*
X186680779Y-86862990D01*
X186568185Y-87000185D01*
X186430990Y-87112779D01*
X186274465Y-87196444D01*
X186125679Y-87241577D01*
X186104627Y-87247963D01*
X185972258Y-87261000D01*
X185883742Y-87261000D01*
X185751373Y-87247963D01*
X185730321Y-87241577D01*
X185581535Y-87196444D01*
X185425010Y-87112779D01*
X185287815Y-87000185D01*
X185175221Y-86862990D01*
X185091556Y-86706465D01*
X185040038Y-86536630D01*
X185040037Y-86536627D01*
X185022641Y-86360000D01*
X185040037Y-86183373D01*
X185084110Y-86038082D01*
X185091556Y-86013535D01*
X185175221Y-85857010D01*
X185287815Y-85719815D01*
X185425010Y-85607221D01*
X185581535Y-85523556D01*
X185751370Y-85472038D01*
X185751373Y-85472037D01*
X185883742Y-85459000D01*
X185972258Y-85459000D01*
X186104627Y-85472037D01*
X186104627Y-85472037D01*
G37*
G36*
X183564627Y-85472037D02*
G01*
X183564630Y-85472038D01*
X183734465Y-85523556D01*
X183890990Y-85607221D01*
X184028185Y-85719815D01*
X184140779Y-85857010D01*
X184224444Y-86013535D01*
X184231890Y-86038082D01*
X184275963Y-86183373D01*
X184293359Y-86360000D01*
X184275963Y-86536627D01*
X184275962Y-86536630D01*
X184224444Y-86706465D01*
X184140779Y-86862990D01*
X184028185Y-87000185D01*
X183890990Y-87112779D01*
X183734465Y-87196444D01*
X183585679Y-87241577D01*
X183564627Y-87247963D01*
X183432258Y-87261000D01*
X183343742Y-87261000D01*
X183211373Y-87247963D01*
X183190321Y-87241577D01*
X183041535Y-87196444D01*
X182885010Y-87112779D01*
X182747815Y-87000185D01*
X182635221Y-86862990D01*
X182551556Y-86706465D01*
X182500038Y-86536630D01*
X182500037Y-86536627D01*
X182482641Y-86360000D01*
X182500037Y-86183373D01*
X182544110Y-86038082D01*
X182551556Y-86013535D01*
X182635221Y-85857010D01*
X182747815Y-85719815D01*
X182885010Y-85607221D01*
X183041535Y-85523556D01*
X183211370Y-85472038D01*
X183211373Y-85472037D01*
X183343742Y-85459000D01*
X183432258Y-85459000D01*
X183564627Y-85472037D01*
X183564627Y-85472037D01*
G37*
G36*
X195191578Y-85825950D02*
G01*
X193775950Y-87241578D01*
X192572454Y-86038082D01*
X193988082Y-84622454D01*
X195191578Y-85825950D01*
X195191578Y-85825950D01*
G37*
G36*
X192999546Y-83633918D02*
G01*
X191583918Y-85049546D01*
X190380422Y-83846050D01*
X191796050Y-82430422D01*
X192999546Y-83633918D01*
X192999546Y-83633918D01*
G37*
G36*
X205287096Y-84720637D02*
G01*
X205003122Y-85004611D01*
X203870620Y-83872109D01*
X204154594Y-83588135D01*
X205287096Y-84720637D01*
X205287096Y-84720637D01*
G37*
G36*
X202529380Y-83872109D02*
G01*
X201396878Y-85004611D01*
X201112904Y-84720637D01*
X202245406Y-83588135D01*
X202529380Y-83872109D01*
X202529380Y-83872109D01*
G37*
G36*
X226744627Y-82932037D02*
G01*
X226744630Y-82932038D01*
X226914465Y-82983556D01*
X227070990Y-83067221D01*
X227208185Y-83179815D01*
X227320779Y-83317010D01*
X227404444Y-83473535D01*
X227442662Y-83599524D01*
X227455963Y-83643373D01*
X227473359Y-83820000D01*
X227455963Y-83996627D01*
X227455962Y-83996630D01*
X227404444Y-84166465D01*
X227320779Y-84322990D01*
X227208185Y-84460185D01*
X227070990Y-84572779D01*
X226914465Y-84656444D01*
X226764053Y-84702070D01*
X226744627Y-84707963D01*
X226612258Y-84721000D01*
X226523742Y-84721000D01*
X226391373Y-84707963D01*
X226371947Y-84702070D01*
X226221535Y-84656444D01*
X226065010Y-84572779D01*
X225927815Y-84460185D01*
X225815221Y-84322990D01*
X225731556Y-84166465D01*
X225680038Y-83996630D01*
X225680037Y-83996627D01*
X225662641Y-83820000D01*
X225680037Y-83643373D01*
X225693338Y-83599524D01*
X225731556Y-83473535D01*
X225815221Y-83317010D01*
X225927815Y-83179815D01*
X226065010Y-83067221D01*
X226221535Y-82983556D01*
X226391370Y-82932038D01*
X226391373Y-82932037D01*
X226523742Y-82919000D01*
X226612258Y-82919000D01*
X226744627Y-82932037D01*
X226744627Y-82932037D01*
G37*
G36*
X183564627Y-82932037D02*
G01*
X183564630Y-82932038D01*
X183734465Y-82983556D01*
X183890990Y-83067221D01*
X184028185Y-83179815D01*
X184140779Y-83317010D01*
X184224444Y-83473535D01*
X184262662Y-83599524D01*
X184275963Y-83643373D01*
X184293359Y-83820000D01*
X184275963Y-83996627D01*
X184275962Y-83996630D01*
X184224444Y-84166465D01*
X184140779Y-84322990D01*
X184028185Y-84460185D01*
X183890990Y-84572779D01*
X183734465Y-84656444D01*
X183584053Y-84702070D01*
X183564627Y-84707963D01*
X183432258Y-84721000D01*
X183343742Y-84721000D01*
X183211373Y-84707963D01*
X183191947Y-84702070D01*
X183041535Y-84656444D01*
X182885010Y-84572779D01*
X182747815Y-84460185D01*
X182635221Y-84322990D01*
X182551556Y-84166465D01*
X182500038Y-83996630D01*
X182500037Y-83996627D01*
X182482641Y-83820000D01*
X182500037Y-83643373D01*
X182513338Y-83599524D01*
X182551556Y-83473535D01*
X182635221Y-83317010D01*
X182747815Y-83179815D01*
X182885010Y-83067221D01*
X183041535Y-82983556D01*
X183211370Y-82932038D01*
X183211373Y-82932037D01*
X183343742Y-82919000D01*
X183432258Y-82919000D01*
X183564627Y-82932037D01*
X183564627Y-82932037D01*
G37*
G36*
X229284627Y-82932037D02*
G01*
X229284630Y-82932038D01*
X229454465Y-82983556D01*
X229610990Y-83067221D01*
X229748185Y-83179815D01*
X229860779Y-83317010D01*
X229944444Y-83473535D01*
X229982662Y-83599524D01*
X229995963Y-83643373D01*
X230013359Y-83820000D01*
X229995963Y-83996627D01*
X229995962Y-83996630D01*
X229944444Y-84166465D01*
X229860779Y-84322990D01*
X229748185Y-84460185D01*
X229610990Y-84572779D01*
X229454465Y-84656444D01*
X229304053Y-84702070D01*
X229284627Y-84707963D01*
X229152258Y-84721000D01*
X229063742Y-84721000D01*
X228931373Y-84707963D01*
X228911947Y-84702070D01*
X228761535Y-84656444D01*
X228605010Y-84572779D01*
X228467815Y-84460185D01*
X228355221Y-84322990D01*
X228271556Y-84166465D01*
X228220038Y-83996630D01*
X228220037Y-83996627D01*
X228202641Y-83820000D01*
X228220037Y-83643373D01*
X228233338Y-83599524D01*
X228271556Y-83473535D01*
X228355221Y-83317010D01*
X228467815Y-83179815D01*
X228605010Y-83067221D01*
X228761535Y-82983556D01*
X228931370Y-82932038D01*
X228931373Y-82932037D01*
X229063742Y-82919000D01*
X229152258Y-82919000D01*
X229284627Y-82932037D01*
X229284627Y-82932037D01*
G37*
G36*
X186104627Y-82932037D02*
G01*
X186104630Y-82932038D01*
X186274465Y-82983556D01*
X186430990Y-83067221D01*
X186568185Y-83179815D01*
X186680779Y-83317010D01*
X186764444Y-83473535D01*
X186802662Y-83599524D01*
X186815963Y-83643373D01*
X186833359Y-83820000D01*
X186815963Y-83996627D01*
X186815962Y-83996630D01*
X186764444Y-84166465D01*
X186680779Y-84322990D01*
X186568185Y-84460185D01*
X186430990Y-84572779D01*
X186274465Y-84656444D01*
X186124053Y-84702070D01*
X186104627Y-84707963D01*
X185972258Y-84721000D01*
X185883742Y-84721000D01*
X185751373Y-84707963D01*
X185731947Y-84702070D01*
X185581535Y-84656444D01*
X185425010Y-84572779D01*
X185287815Y-84460185D01*
X185175221Y-84322990D01*
X185091556Y-84166465D01*
X185040038Y-83996630D01*
X185040037Y-83996627D01*
X185022641Y-83820000D01*
X185040037Y-83643373D01*
X185053338Y-83599524D01*
X185091556Y-83473535D01*
X185175221Y-83317010D01*
X185287815Y-83179815D01*
X185425010Y-83067221D01*
X185581535Y-82983556D01*
X185751370Y-82932038D01*
X185751373Y-82932037D01*
X185883742Y-82919000D01*
X185972258Y-82919000D01*
X186104627Y-82932037D01*
X186104627Y-82932037D01*
G37*
G36*
X210691857Y-83047416D02*
G01*
X210739956Y-83062006D01*
X210784289Y-83085703D01*
X210824117Y-83118389D01*
X210832210Y-83126482D01*
X210832216Y-83126487D01*
X211513513Y-83807784D01*
X211513518Y-83807790D01*
X211521611Y-83815883D01*
X211554297Y-83855711D01*
X211577994Y-83900044D01*
X211592584Y-83948143D01*
X211597512Y-83998173D01*
X211592584Y-84048203D01*
X211577994Y-84096302D01*
X211554297Y-84140635D01*
X211521611Y-84180463D01*
X211513518Y-84188556D01*
X211513513Y-84188562D01*
X211132736Y-84569339D01*
X211132730Y-84569344D01*
X211124637Y-84577437D01*
X211084809Y-84610123D01*
X211040476Y-84633820D01*
X210992377Y-84648410D01*
X210942347Y-84653338D01*
X210892317Y-84648410D01*
X210844218Y-84633820D01*
X210799885Y-84610123D01*
X210760057Y-84577437D01*
X210751964Y-84569344D01*
X210751958Y-84569339D01*
X210070661Y-83888042D01*
X210070656Y-83888036D01*
X210062563Y-83879943D01*
X210029877Y-83840115D01*
X210006180Y-83795782D01*
X209991590Y-83747683D01*
X209986662Y-83697653D01*
X209991590Y-83647623D01*
X210006180Y-83599524D01*
X210029877Y-83555191D01*
X210062563Y-83515363D01*
X210070656Y-83507270D01*
X210070661Y-83507264D01*
X210451438Y-83126487D01*
X210451444Y-83126482D01*
X210459537Y-83118389D01*
X210499365Y-83085703D01*
X210543698Y-83062006D01*
X210591797Y-83047416D01*
X210641827Y-83042488D01*
X210691857Y-83047416D01*
X210691857Y-83047416D01*
G37*
G36*
X205640650Y-84367083D02*
G01*
X205356676Y-84651057D01*
X204224174Y-83518555D01*
X204508148Y-83234581D01*
X205640650Y-84367083D01*
X205640650Y-84367083D01*
G37*
G36*
X202175826Y-83518555D02*
G01*
X201043324Y-84651057D01*
X200759350Y-84367083D01*
X201891852Y-83234581D01*
X202175826Y-83518555D01*
X202175826Y-83518555D01*
G37*
G36*
X205994203Y-84013530D02*
G01*
X205710229Y-84297504D01*
X204577727Y-83165002D01*
X204861701Y-82881028D01*
X205994203Y-84013530D01*
X205994203Y-84013530D01*
G37*
G36*
X201822273Y-83165002D02*
G01*
X200689771Y-84297504D01*
X200405797Y-84013530D01*
X201538299Y-82881028D01*
X201822273Y-83165002D01*
X201822273Y-83165002D01*
G37*
G36*
X206347756Y-83659976D02*
G01*
X206063782Y-83943950D01*
X204931280Y-82811448D01*
X205215254Y-82527474D01*
X206347756Y-83659976D01*
X206347756Y-83659976D01*
G37*
G36*
X201468720Y-82811448D02*
G01*
X200336218Y-83943950D01*
X200052244Y-83659976D01*
X201184746Y-82527474D01*
X201468720Y-82811448D01*
X201468720Y-82811448D01*
G37*
G36*
X206701310Y-83306423D02*
G01*
X206417336Y-83590397D01*
X205284834Y-82457895D01*
X205568808Y-82173921D01*
X206701310Y-83306423D01*
X206701310Y-83306423D01*
G37*
G36*
X201115166Y-82457895D02*
G01*
X199982664Y-83590397D01*
X199698690Y-83306423D01*
X200831192Y-82173921D01*
X201115166Y-82457895D01*
X201115166Y-82457895D01*
G37*
G36*
X195935203Y-81904416D02*
G01*
X195983302Y-81919006D01*
X196027635Y-81942703D01*
X196067463Y-81975389D01*
X196075556Y-81983482D01*
X196075562Y-81983487D01*
X196456339Y-82364264D01*
X196456344Y-82364270D01*
X196464437Y-82372363D01*
X196497123Y-82412191D01*
X196520820Y-82456524D01*
X196535410Y-82504623D01*
X196540338Y-82554653D01*
X196535410Y-82604683D01*
X196520820Y-82652782D01*
X196497123Y-82697115D01*
X196464437Y-82736943D01*
X196456344Y-82745036D01*
X196456339Y-82745042D01*
X195775042Y-83426339D01*
X195775036Y-83426344D01*
X195766943Y-83434437D01*
X195727115Y-83467123D01*
X195682782Y-83490820D01*
X195634683Y-83505410D01*
X195584653Y-83510338D01*
X195534623Y-83505410D01*
X195486524Y-83490820D01*
X195442191Y-83467123D01*
X195402363Y-83434437D01*
X195394270Y-83426344D01*
X195394264Y-83426339D01*
X195013487Y-83045562D01*
X195013482Y-83045556D01*
X195005389Y-83037463D01*
X194972703Y-82997635D01*
X194949006Y-82953302D01*
X194934416Y-82905203D01*
X194929488Y-82855173D01*
X194934416Y-82805143D01*
X194949006Y-82757044D01*
X194972703Y-82712711D01*
X195005389Y-82672883D01*
X195013482Y-82664790D01*
X195013487Y-82664784D01*
X195694784Y-81983487D01*
X195694790Y-81983482D01*
X195702883Y-81975389D01*
X195742711Y-81942703D01*
X195787044Y-81919006D01*
X195835143Y-81904416D01*
X195885173Y-81899488D01*
X195935203Y-81904416D01*
X195935203Y-81904416D01*
G37*
G36*
X212017683Y-81721590D02*
G01*
X212065782Y-81736180D01*
X212110115Y-81759877D01*
X212149943Y-81792563D01*
X212158036Y-81800656D01*
X212158042Y-81800661D01*
X212839339Y-82481958D01*
X212839344Y-82481964D01*
X212847437Y-82490057D01*
X212880123Y-82529885D01*
X212903820Y-82574218D01*
X212918410Y-82622317D01*
X212923338Y-82672347D01*
X212918410Y-82722377D01*
X212903820Y-82770476D01*
X212880123Y-82814809D01*
X212847437Y-82854637D01*
X212839344Y-82862730D01*
X212839339Y-82862736D01*
X212458562Y-83243513D01*
X212458556Y-83243518D01*
X212450463Y-83251611D01*
X212410635Y-83284297D01*
X212366302Y-83307994D01*
X212318203Y-83322584D01*
X212268173Y-83327512D01*
X212218143Y-83322584D01*
X212170044Y-83307994D01*
X212125711Y-83284297D01*
X212085883Y-83251611D01*
X212077790Y-83243518D01*
X212077784Y-83243513D01*
X211396487Y-82562216D01*
X211396482Y-82562210D01*
X211388389Y-82554117D01*
X211355703Y-82514289D01*
X211332006Y-82469956D01*
X211317416Y-82421857D01*
X211312488Y-82371827D01*
X211317416Y-82321797D01*
X211332006Y-82273698D01*
X211355703Y-82229365D01*
X211388389Y-82189537D01*
X211396482Y-82181444D01*
X211396487Y-82181438D01*
X211777264Y-81800661D01*
X211777270Y-81800656D01*
X211785363Y-81792563D01*
X211825191Y-81759877D01*
X211869524Y-81736180D01*
X211917623Y-81721590D01*
X211967653Y-81716662D01*
X212017683Y-81721590D01*
X212017683Y-81721590D01*
G37*
G36*
X207054863Y-82952870D02*
G01*
X206770889Y-83236844D01*
X205638387Y-82104342D01*
X205922361Y-81820368D01*
X207054863Y-82952870D01*
X207054863Y-82952870D01*
G37*
G36*
X200761613Y-82104342D02*
G01*
X199629111Y-83236844D01*
X199345137Y-82952870D01*
X200477639Y-81820368D01*
X200761613Y-82104342D01*
X200761613Y-82104342D01*
G37*
G36*
X200408059Y-81750788D02*
G01*
X199275557Y-82883290D01*
X198991583Y-82599316D01*
X200124085Y-81466814D01*
X200408059Y-81750788D01*
X200408059Y-81750788D01*
G37*
G36*
X207408417Y-82599316D02*
G01*
X207124443Y-82883290D01*
X205991941Y-81750788D01*
X206275915Y-81466814D01*
X207408417Y-82599316D01*
X207408417Y-82599316D01*
G37*
G36*
X200054506Y-81397235D02*
G01*
X198922004Y-82529737D01*
X198638030Y-82245763D01*
X199770532Y-81113261D01*
X200054506Y-81397235D01*
X200054506Y-81397235D01*
G37*
G36*
X207761970Y-82245763D02*
G01*
X207477996Y-82529737D01*
X206345494Y-81397235D01*
X206629468Y-81113261D01*
X207761970Y-82245763D01*
X207761970Y-82245763D01*
G37*
G36*
X194609377Y-80578590D02*
G01*
X194657476Y-80593180D01*
X194701809Y-80616877D01*
X194741637Y-80649563D01*
X194749730Y-80657656D01*
X194749736Y-80657661D01*
X195130513Y-81038438D01*
X195130518Y-81038444D01*
X195138611Y-81046537D01*
X195171297Y-81086365D01*
X195194994Y-81130698D01*
X195209584Y-81178797D01*
X195214512Y-81228827D01*
X195209584Y-81278857D01*
X195194994Y-81326956D01*
X195171297Y-81371289D01*
X195138611Y-81411117D01*
X195130518Y-81419210D01*
X195130513Y-81419216D01*
X194449216Y-82100513D01*
X194449210Y-82100518D01*
X194441117Y-82108611D01*
X194401289Y-82141297D01*
X194356956Y-82164994D01*
X194308857Y-82179584D01*
X194258827Y-82184512D01*
X194208797Y-82179584D01*
X194160698Y-82164994D01*
X194116365Y-82141297D01*
X194076537Y-82108611D01*
X194068444Y-82100518D01*
X194068438Y-82100513D01*
X193687661Y-81719736D01*
X193687656Y-81719730D01*
X193679563Y-81711637D01*
X193646877Y-81671809D01*
X193623180Y-81627476D01*
X193608590Y-81579377D01*
X193603662Y-81529347D01*
X193608590Y-81479317D01*
X193623180Y-81431218D01*
X193646877Y-81386885D01*
X193679563Y-81347057D01*
X193687656Y-81338964D01*
X193687661Y-81338958D01*
X194368958Y-80657661D01*
X194368964Y-80657656D01*
X194377057Y-80649563D01*
X194416885Y-80616877D01*
X194461218Y-80593180D01*
X194509317Y-80578590D01*
X194559347Y-80573662D01*
X194609377Y-80578590D01*
X194609377Y-80578590D01*
G37*
G36*
X186104627Y-80392037D02*
G01*
X186104630Y-80392038D01*
X186274465Y-80443556D01*
X186430990Y-80527221D01*
X186568185Y-80639815D01*
X186680779Y-80777010D01*
X186764444Y-80933535D01*
X186796265Y-81038438D01*
X186815963Y-81103373D01*
X186833359Y-81280000D01*
X186815963Y-81456627D01*
X186815962Y-81456630D01*
X186764444Y-81626465D01*
X186680779Y-81782990D01*
X186568185Y-81920185D01*
X186430990Y-82032779D01*
X186274465Y-82116444D01*
X186134573Y-82158879D01*
X186104627Y-82167963D01*
X185972258Y-82181000D01*
X185883742Y-82181000D01*
X185751373Y-82167963D01*
X185721427Y-82158879D01*
X185581535Y-82116444D01*
X185425010Y-82032779D01*
X185287815Y-81920185D01*
X185175221Y-81782990D01*
X185091556Y-81626465D01*
X185040038Y-81456630D01*
X185040037Y-81456627D01*
X185022641Y-81280000D01*
X185040037Y-81103373D01*
X185059735Y-81038438D01*
X185091556Y-80933535D01*
X185175221Y-80777010D01*
X185287815Y-80639815D01*
X185425010Y-80527221D01*
X185581535Y-80443556D01*
X185751370Y-80392038D01*
X185751373Y-80392037D01*
X185883742Y-80379000D01*
X185972258Y-80379000D01*
X186104627Y-80392037D01*
X186104627Y-80392037D01*
G37*
G36*
X229284627Y-80392037D02*
G01*
X229284630Y-80392038D01*
X229454465Y-80443556D01*
X229610990Y-80527221D01*
X229748185Y-80639815D01*
X229860779Y-80777010D01*
X229944444Y-80933535D01*
X229976265Y-81038438D01*
X229995963Y-81103373D01*
X230013359Y-81280000D01*
X229995963Y-81456627D01*
X229995962Y-81456630D01*
X229944444Y-81626465D01*
X229860779Y-81782990D01*
X229748185Y-81920185D01*
X229610990Y-82032779D01*
X229454465Y-82116444D01*
X229314573Y-82158879D01*
X229284627Y-82167963D01*
X229152258Y-82181000D01*
X229063742Y-82181000D01*
X228931373Y-82167963D01*
X228901427Y-82158879D01*
X228761535Y-82116444D01*
X228605010Y-82032779D01*
X228467815Y-81920185D01*
X228355221Y-81782990D01*
X228271556Y-81626465D01*
X228220038Y-81456630D01*
X228220037Y-81456627D01*
X228202641Y-81280000D01*
X228220037Y-81103373D01*
X228239735Y-81038438D01*
X228271556Y-80933535D01*
X228355221Y-80777010D01*
X228467815Y-80639815D01*
X228605010Y-80527221D01*
X228761535Y-80443556D01*
X228931370Y-80392038D01*
X228931373Y-80392037D01*
X229063742Y-80379000D01*
X229152258Y-80379000D01*
X229284627Y-80392037D01*
X229284627Y-80392037D01*
G37*
G36*
X183564627Y-80392037D02*
G01*
X183564630Y-80392038D01*
X183734465Y-80443556D01*
X183890990Y-80527221D01*
X184028185Y-80639815D01*
X184140779Y-80777010D01*
X184224444Y-80933535D01*
X184256265Y-81038438D01*
X184275963Y-81103373D01*
X184293359Y-81280000D01*
X184275963Y-81456627D01*
X184275962Y-81456630D01*
X184224444Y-81626465D01*
X184140779Y-81782990D01*
X184028185Y-81920185D01*
X183890990Y-82032779D01*
X183734465Y-82116444D01*
X183594573Y-82158879D01*
X183564627Y-82167963D01*
X183432258Y-82181000D01*
X183343742Y-82181000D01*
X183211373Y-82167963D01*
X183181427Y-82158879D01*
X183041535Y-82116444D01*
X182885010Y-82032779D01*
X182747815Y-81920185D01*
X182635221Y-81782990D01*
X182551556Y-81626465D01*
X182500038Y-81456630D01*
X182500037Y-81456627D01*
X182482641Y-81280000D01*
X182500037Y-81103373D01*
X182519735Y-81038438D01*
X182551556Y-80933535D01*
X182635221Y-80777010D01*
X182747815Y-80639815D01*
X182885010Y-80527221D01*
X183041535Y-80443556D01*
X183211370Y-80392038D01*
X183211373Y-80392037D01*
X183343742Y-80379000D01*
X183432258Y-80379000D01*
X183564627Y-80392037D01*
X183564627Y-80392037D01*
G37*
G36*
X226744627Y-80392037D02*
G01*
X226744630Y-80392038D01*
X226914465Y-80443556D01*
X227070990Y-80527221D01*
X227208185Y-80639815D01*
X227320779Y-80777010D01*
X227404444Y-80933535D01*
X227436265Y-81038438D01*
X227455963Y-81103373D01*
X227473359Y-81280000D01*
X227455963Y-81456627D01*
X227455962Y-81456630D01*
X227404444Y-81626465D01*
X227320779Y-81782990D01*
X227208185Y-81920185D01*
X227070990Y-82032779D01*
X226914465Y-82116444D01*
X226774573Y-82158879D01*
X226744627Y-82167963D01*
X226612258Y-82181000D01*
X226523742Y-82181000D01*
X226391373Y-82167963D01*
X226361427Y-82158879D01*
X226221535Y-82116444D01*
X226065010Y-82032779D01*
X225927815Y-81920185D01*
X225815221Y-81782990D01*
X225731556Y-81626465D01*
X225680038Y-81456630D01*
X225680037Y-81456627D01*
X225662641Y-81280000D01*
X225680037Y-81103373D01*
X225699735Y-81038438D01*
X225731556Y-80933535D01*
X225815221Y-80777010D01*
X225927815Y-80639815D01*
X226065010Y-80527221D01*
X226221535Y-80443556D01*
X226391370Y-80392038D01*
X226391373Y-80392037D01*
X226523742Y-80379000D01*
X226612258Y-80379000D01*
X226744627Y-80392037D01*
X226744627Y-80392037D01*
G37*
G36*
X199700953Y-81043682D02*
G01*
X198568451Y-82176184D01*
X198284477Y-81892210D01*
X199416979Y-80759708D01*
X199700953Y-81043682D01*
X199700953Y-81043682D01*
G37*
G36*
X208115523Y-81892210D02*
G01*
X207831549Y-82176184D01*
X206699047Y-81043682D01*
X206983021Y-80759708D01*
X208115523Y-81892210D01*
X208115523Y-81892210D01*
G37*
G36*
X199347399Y-80690128D02*
G01*
X198214897Y-81822630D01*
X197930923Y-81538656D01*
X199063425Y-80406154D01*
X199347399Y-80690128D01*
X199347399Y-80690128D01*
G37*
G36*
X208469077Y-81538656D02*
G01*
X208185103Y-81822630D01*
X207052601Y-80690128D01*
X207336575Y-80406154D01*
X208469077Y-81538656D01*
X208469077Y-81538656D01*
G37*
G36*
X208822630Y-81185103D02*
G01*
X208538656Y-81469077D01*
X207406154Y-80336575D01*
X207690128Y-80052601D01*
X208822630Y-81185103D01*
X208822630Y-81185103D01*
G37*
G36*
X198993846Y-80336575D02*
G01*
X197861344Y-81469077D01*
X197577370Y-81185103D01*
X198709872Y-80052601D01*
X198993846Y-80336575D01*
X198993846Y-80336575D01*
G37*
G36*
X198640292Y-79983021D02*
G01*
X197507790Y-81115523D01*
X197223816Y-80831549D01*
X198356318Y-79699047D01*
X198640292Y-79983021D01*
X198640292Y-79983021D01*
G37*
G36*
X209176184Y-80831549D02*
G01*
X208892210Y-81115523D01*
X207759708Y-79983021D01*
X208043682Y-79699047D01*
X209176184Y-80831549D01*
X209176184Y-80831549D01*
G37*
G36*
X198286739Y-79629468D02*
G01*
X197154237Y-80761970D01*
X196870263Y-80477996D01*
X198002765Y-79345494D01*
X198286739Y-79629468D01*
X198286739Y-79629468D01*
G37*
G36*
X209529737Y-80477996D02*
G01*
X209245763Y-80761970D01*
X208113261Y-79629468D01*
X208397235Y-79345494D01*
X209529737Y-80477996D01*
X209529737Y-80477996D01*
G37*
G36*
X209883290Y-80124443D02*
G01*
X209599316Y-80408417D01*
X208466814Y-79275915D01*
X208750788Y-78991941D01*
X209883290Y-80124443D01*
X209883290Y-80124443D01*
G37*
G36*
X197933186Y-79275915D02*
G01*
X196800684Y-80408417D01*
X196516710Y-80124443D01*
X197649212Y-78991941D01*
X197933186Y-79275915D01*
X197933186Y-79275915D01*
G37*
G36*
X210236844Y-79770889D02*
G01*
X209952870Y-80054863D01*
X208820368Y-78922361D01*
X209104342Y-78638387D01*
X210236844Y-79770889D01*
X210236844Y-79770889D01*
G37*
G36*
X197579632Y-78922361D02*
G01*
X196447130Y-80054863D01*
X196163156Y-79770889D01*
X197295658Y-78638387D01*
X197579632Y-78922361D01*
X197579632Y-78922361D01*
G37*
G36*
X210590397Y-79417336D02*
G01*
X210306423Y-79701310D01*
X209173921Y-78568808D01*
X209457895Y-78284834D01*
X210590397Y-79417336D01*
X210590397Y-79417336D01*
G37*
G36*
X197226079Y-78568808D02*
G01*
X196093577Y-79701310D01*
X195809603Y-79417336D01*
X196942105Y-78284834D01*
X197226079Y-78568808D01*
X197226079Y-78568808D01*
G37*
G36*
X186104627Y-77852037D02*
G01*
X186104630Y-77852038D01*
X186274465Y-77903556D01*
X186430990Y-77987221D01*
X186568185Y-78099815D01*
X186680779Y-78237010D01*
X186764444Y-78393535D01*
X186810070Y-78543947D01*
X186815963Y-78563373D01*
X186833359Y-78740000D01*
X186815963Y-78916627D01*
X186815962Y-78916630D01*
X186764444Y-79086465D01*
X186680779Y-79242990D01*
X186568185Y-79380185D01*
X186430990Y-79492779D01*
X186274465Y-79576444D01*
X186124053Y-79622070D01*
X186104627Y-79627963D01*
X185972258Y-79641000D01*
X185883742Y-79641000D01*
X185751373Y-79627963D01*
X185731947Y-79622070D01*
X185581535Y-79576444D01*
X185425010Y-79492779D01*
X185287815Y-79380185D01*
X185175221Y-79242990D01*
X185091556Y-79086465D01*
X185040038Y-78916630D01*
X185040037Y-78916627D01*
X185022641Y-78740000D01*
X185040037Y-78563373D01*
X185045930Y-78543947D01*
X185091556Y-78393535D01*
X185175221Y-78237010D01*
X185287815Y-78099815D01*
X185425010Y-77987221D01*
X185581535Y-77903556D01*
X185751370Y-77852038D01*
X185751373Y-77852037D01*
X185883742Y-77839000D01*
X185972258Y-77839000D01*
X186104627Y-77852037D01*
X186104627Y-77852037D01*
G37*
G36*
X229284627Y-77852037D02*
G01*
X229284630Y-77852038D01*
X229454465Y-77903556D01*
X229610990Y-77987221D01*
X229748185Y-78099815D01*
X229860779Y-78237010D01*
X229944444Y-78393535D01*
X229990070Y-78543947D01*
X229995963Y-78563373D01*
X230013359Y-78740000D01*
X229995963Y-78916627D01*
X229995962Y-78916630D01*
X229944444Y-79086465D01*
X229860779Y-79242990D01*
X229748185Y-79380185D01*
X229610990Y-79492779D01*
X229454465Y-79576444D01*
X229304053Y-79622070D01*
X229284627Y-79627963D01*
X229152258Y-79641000D01*
X229063742Y-79641000D01*
X228931373Y-79627963D01*
X228911947Y-79622070D01*
X228761535Y-79576444D01*
X228605010Y-79492779D01*
X228467815Y-79380185D01*
X228355221Y-79242990D01*
X228271556Y-79086465D01*
X228220038Y-78916630D01*
X228220037Y-78916627D01*
X228202641Y-78740000D01*
X228220037Y-78563373D01*
X228225930Y-78543947D01*
X228271556Y-78393535D01*
X228355221Y-78237010D01*
X228467815Y-78099815D01*
X228605010Y-77987221D01*
X228761535Y-77903556D01*
X228931370Y-77852038D01*
X228931373Y-77852037D01*
X229063742Y-77839000D01*
X229152258Y-77839000D01*
X229284627Y-77852037D01*
X229284627Y-77852037D01*
G37*
G36*
X183564627Y-77852037D02*
G01*
X183564630Y-77852038D01*
X183734465Y-77903556D01*
X183890990Y-77987221D01*
X184028185Y-78099815D01*
X184140779Y-78237010D01*
X184224444Y-78393535D01*
X184270070Y-78543947D01*
X184275963Y-78563373D01*
X184293359Y-78740000D01*
X184275963Y-78916627D01*
X184275962Y-78916630D01*
X184224444Y-79086465D01*
X184140779Y-79242990D01*
X184028185Y-79380185D01*
X183890990Y-79492779D01*
X183734465Y-79576444D01*
X183584053Y-79622070D01*
X183564627Y-79627963D01*
X183432258Y-79641000D01*
X183343742Y-79641000D01*
X183211373Y-79627963D01*
X183191947Y-79622070D01*
X183041535Y-79576444D01*
X182885010Y-79492779D01*
X182747815Y-79380185D01*
X182635221Y-79242990D01*
X182551556Y-79086465D01*
X182500038Y-78916630D01*
X182500037Y-78916627D01*
X182482641Y-78740000D01*
X182500037Y-78563373D01*
X182505930Y-78543947D01*
X182551556Y-78393535D01*
X182635221Y-78237010D01*
X182747815Y-78099815D01*
X182885010Y-77987221D01*
X183041535Y-77903556D01*
X183211370Y-77852038D01*
X183211373Y-77852037D01*
X183343742Y-77839000D01*
X183432258Y-77839000D01*
X183564627Y-77852037D01*
X183564627Y-77852037D01*
G37*
G36*
X226744627Y-77852037D02*
G01*
X226744630Y-77852038D01*
X226914465Y-77903556D01*
X227070990Y-77987221D01*
X227208185Y-78099815D01*
X227320779Y-78237010D01*
X227404444Y-78393535D01*
X227450070Y-78543947D01*
X227455963Y-78563373D01*
X227473359Y-78740000D01*
X227455963Y-78916627D01*
X227455962Y-78916630D01*
X227404444Y-79086465D01*
X227320779Y-79242990D01*
X227208185Y-79380185D01*
X227070990Y-79492779D01*
X226914465Y-79576444D01*
X226764053Y-79622070D01*
X226744627Y-79627963D01*
X226612258Y-79641000D01*
X226523742Y-79641000D01*
X226391373Y-79627963D01*
X226371947Y-79622070D01*
X226221535Y-79576444D01*
X226065010Y-79492779D01*
X225927815Y-79380185D01*
X225815221Y-79242990D01*
X225731556Y-79086465D01*
X225680038Y-78916630D01*
X225680037Y-78916627D01*
X225662641Y-78740000D01*
X225680037Y-78563373D01*
X225685930Y-78543947D01*
X225731556Y-78393535D01*
X225815221Y-78237010D01*
X225927815Y-78099815D01*
X226065010Y-77987221D01*
X226221535Y-77903556D01*
X226391370Y-77852038D01*
X226391373Y-77852037D01*
X226523742Y-77839000D01*
X226612258Y-77839000D01*
X226744627Y-77852037D01*
X226744627Y-77852037D01*
G37*
G36*
X196872526Y-78215254D02*
G01*
X195740024Y-79347756D01*
X195456050Y-79063782D01*
X196588552Y-77931280D01*
X196872526Y-78215254D01*
X196872526Y-78215254D01*
G37*
G36*
X210943950Y-79063782D02*
G01*
X210659976Y-79347756D01*
X209527474Y-78215254D01*
X209811448Y-77931280D01*
X210943950Y-79063782D01*
X210943950Y-79063782D01*
G37*
G36*
X211297504Y-78710229D02*
G01*
X211013530Y-78994203D01*
X209881028Y-77861701D01*
X210165002Y-77577727D01*
X211297504Y-78710229D01*
X211297504Y-78710229D01*
G37*
G36*
X196518972Y-77861701D02*
G01*
X195386470Y-78994203D01*
X195102496Y-78710229D01*
X196234998Y-77577727D01*
X196518972Y-77861701D01*
X196518972Y-77861701D01*
G37*
G36*
X196165419Y-77508148D02*
G01*
X195032917Y-78640650D01*
X194748943Y-78356676D01*
X195881445Y-77224174D01*
X196165419Y-77508148D01*
X196165419Y-77508148D01*
G37*
G36*
X211651057Y-78356676D02*
G01*
X211367083Y-78640650D01*
X210234581Y-77508148D01*
X210518555Y-77224174D01*
X211651057Y-78356676D01*
X211651057Y-78356676D01*
G37*
G36*
X212004611Y-78003122D02*
G01*
X211720637Y-78287096D01*
X210588135Y-77154594D01*
X210872109Y-76870620D01*
X212004611Y-78003122D01*
X212004611Y-78003122D01*
G37*
G36*
X195811865Y-77154594D02*
G01*
X194679363Y-78287096D01*
X194395389Y-78003122D01*
X195527891Y-76870620D01*
X195811865Y-77154594D01*
X195811865Y-77154594D01*
G37*
G36*
X186104627Y-75312037D02*
G01*
X186104630Y-75312038D01*
X186274465Y-75363556D01*
X186430990Y-75447221D01*
X186568185Y-75559815D01*
X186680779Y-75697010D01*
X186764444Y-75853535D01*
X186810070Y-76003947D01*
X186815963Y-76023373D01*
X186833359Y-76200000D01*
X186815963Y-76376627D01*
X186815962Y-76376630D01*
X186764444Y-76546465D01*
X186680779Y-76702990D01*
X186568185Y-76840185D01*
X186430990Y-76952779D01*
X186274465Y-77036444D01*
X186124053Y-77082070D01*
X186104627Y-77087963D01*
X185972258Y-77101000D01*
X185883742Y-77101000D01*
X185751373Y-77087963D01*
X185731947Y-77082070D01*
X185581535Y-77036444D01*
X185425010Y-76952779D01*
X185287815Y-76840185D01*
X185175221Y-76702990D01*
X185091556Y-76546465D01*
X185040038Y-76376630D01*
X185040037Y-76376627D01*
X185022641Y-76200000D01*
X185040037Y-76023373D01*
X185045930Y-76003947D01*
X185091556Y-75853535D01*
X185175221Y-75697010D01*
X185287815Y-75559815D01*
X185425010Y-75447221D01*
X185581535Y-75363556D01*
X185751370Y-75312038D01*
X185751373Y-75312037D01*
X185883742Y-75299000D01*
X185972258Y-75299000D01*
X186104627Y-75312037D01*
X186104627Y-75312037D01*
G37*
G36*
X183564627Y-75312037D02*
G01*
X183564630Y-75312038D01*
X183734465Y-75363556D01*
X183890990Y-75447221D01*
X184028185Y-75559815D01*
X184140779Y-75697010D01*
X184224444Y-75853535D01*
X184270070Y-76003947D01*
X184275963Y-76023373D01*
X184293359Y-76200000D01*
X184275963Y-76376627D01*
X184275962Y-76376630D01*
X184224444Y-76546465D01*
X184140779Y-76702990D01*
X184028185Y-76840185D01*
X183890990Y-76952779D01*
X183734465Y-77036444D01*
X183584053Y-77082070D01*
X183564627Y-77087963D01*
X183432258Y-77101000D01*
X183343742Y-77101000D01*
X183211373Y-77087963D01*
X183191947Y-77082070D01*
X183041535Y-77036444D01*
X182885010Y-76952779D01*
X182747815Y-76840185D01*
X182635221Y-76702990D01*
X182551556Y-76546465D01*
X182500038Y-76376630D01*
X182500037Y-76376627D01*
X182482641Y-76200000D01*
X182500037Y-76023373D01*
X182505930Y-76003947D01*
X182551556Y-75853535D01*
X182635221Y-75697010D01*
X182747815Y-75559815D01*
X182885010Y-75447221D01*
X183041535Y-75363556D01*
X183211370Y-75312038D01*
X183211373Y-75312037D01*
X183343742Y-75299000D01*
X183432258Y-75299000D01*
X183564627Y-75312037D01*
X183564627Y-75312037D01*
G37*
G36*
X229284627Y-75312037D02*
G01*
X229284630Y-75312038D01*
X229454465Y-75363556D01*
X229610990Y-75447221D01*
X229748185Y-75559815D01*
X229860779Y-75697010D01*
X229944444Y-75853535D01*
X229990070Y-76003947D01*
X229995963Y-76023373D01*
X230013359Y-76200000D01*
X229995963Y-76376627D01*
X229995962Y-76376630D01*
X229944444Y-76546465D01*
X229860779Y-76702990D01*
X229748185Y-76840185D01*
X229610990Y-76952779D01*
X229454465Y-77036444D01*
X229304053Y-77082070D01*
X229284627Y-77087963D01*
X229152258Y-77101000D01*
X229063742Y-77101000D01*
X228931373Y-77087963D01*
X228911947Y-77082070D01*
X228761535Y-77036444D01*
X228605010Y-76952779D01*
X228467815Y-76840185D01*
X228355221Y-76702990D01*
X228271556Y-76546465D01*
X228220038Y-76376630D01*
X228220037Y-76376627D01*
X228202641Y-76200000D01*
X228220037Y-76023373D01*
X228225930Y-76003947D01*
X228271556Y-75853535D01*
X228355221Y-75697010D01*
X228467815Y-75559815D01*
X228605010Y-75447221D01*
X228761535Y-75363556D01*
X228931370Y-75312038D01*
X228931373Y-75312037D01*
X229063742Y-75299000D01*
X229152258Y-75299000D01*
X229284627Y-75312037D01*
X229284627Y-75312037D01*
G37*
G36*
X226744627Y-75312037D02*
G01*
X226744630Y-75312038D01*
X226914465Y-75363556D01*
X227070990Y-75447221D01*
X227208185Y-75559815D01*
X227320779Y-75697010D01*
X227404444Y-75853535D01*
X227450070Y-76003947D01*
X227455963Y-76023373D01*
X227473359Y-76200000D01*
X227455963Y-76376627D01*
X227455962Y-76376630D01*
X227404444Y-76546465D01*
X227320779Y-76702990D01*
X227208185Y-76840185D01*
X227070990Y-76952779D01*
X226914465Y-77036444D01*
X226764053Y-77082070D01*
X226744627Y-77087963D01*
X226612258Y-77101000D01*
X226523742Y-77101000D01*
X226391373Y-77087963D01*
X226371947Y-77082070D01*
X226221535Y-77036444D01*
X226065010Y-76952779D01*
X225927815Y-76840185D01*
X225815221Y-76702990D01*
X225731556Y-76546465D01*
X225680038Y-76376630D01*
X225680037Y-76376627D01*
X225662641Y-76200000D01*
X225680037Y-76023373D01*
X225685930Y-76003947D01*
X225731556Y-75853535D01*
X225815221Y-75697010D01*
X225927815Y-75559815D01*
X226065010Y-75447221D01*
X226221535Y-75363556D01*
X226391370Y-75312038D01*
X226391373Y-75312037D01*
X226523742Y-75299000D01*
X226612258Y-75299000D01*
X226744627Y-75312037D01*
X226744627Y-75312037D01*
G37*
G36*
X212004611Y-74396878D02*
G01*
X210872109Y-75529380D01*
X210588135Y-75245406D01*
X211720637Y-74112904D01*
X212004611Y-74396878D01*
X212004611Y-74396878D01*
G37*
G36*
X195811865Y-75245406D02*
G01*
X195527891Y-75529380D01*
X194395389Y-74396878D01*
X194679363Y-74112904D01*
X195811865Y-75245406D01*
X195811865Y-75245406D01*
G37*
G36*
X196165419Y-74891852D02*
G01*
X195881445Y-75175826D01*
X194748943Y-74043324D01*
X195032917Y-73759350D01*
X196165419Y-74891852D01*
X196165419Y-74891852D01*
G37*
G36*
X211651057Y-74043324D02*
G01*
X210518555Y-75175826D01*
X210234581Y-74891852D01*
X211367083Y-73759350D01*
X211651057Y-74043324D01*
X211651057Y-74043324D01*
G37*
G36*
X196518972Y-74538299D02*
G01*
X196234998Y-74822273D01*
X195102496Y-73689771D01*
X195386470Y-73405797D01*
X196518972Y-74538299D01*
X196518972Y-74538299D01*
G37*
G36*
X211297504Y-73689771D02*
G01*
X210165002Y-74822273D01*
X209881028Y-74538299D01*
X211013530Y-73405797D01*
X211297504Y-73689771D01*
X211297504Y-73689771D01*
G37*
G36*
X229284627Y-72772037D02*
G01*
X229284630Y-72772038D01*
X229454465Y-72823556D01*
X229610990Y-72907221D01*
X229748185Y-73019815D01*
X229860779Y-73157010D01*
X229944444Y-73313535D01*
X229972431Y-73405797D01*
X229995963Y-73483373D01*
X230013359Y-73660000D01*
X229995963Y-73836627D01*
X229995962Y-73836630D01*
X229944444Y-74006465D01*
X229860779Y-74162990D01*
X229748185Y-74300185D01*
X229610990Y-74412779D01*
X229454465Y-74496444D01*
X229316485Y-74538299D01*
X229284627Y-74547963D01*
X229152258Y-74561000D01*
X229063742Y-74561000D01*
X228931373Y-74547963D01*
X228899515Y-74538299D01*
X228761535Y-74496444D01*
X228605010Y-74412779D01*
X228467815Y-74300185D01*
X228355221Y-74162990D01*
X228271556Y-74006465D01*
X228220038Y-73836630D01*
X228220037Y-73836627D01*
X228202641Y-73660000D01*
X228220037Y-73483373D01*
X228243569Y-73405797D01*
X228271556Y-73313535D01*
X228355221Y-73157010D01*
X228467815Y-73019815D01*
X228605010Y-72907221D01*
X228761535Y-72823556D01*
X228931370Y-72772038D01*
X228931373Y-72772037D01*
X229063742Y-72759000D01*
X229152258Y-72759000D01*
X229284627Y-72772037D01*
X229284627Y-72772037D01*
G37*
G36*
X186104627Y-72772037D02*
G01*
X186104630Y-72772038D01*
X186274465Y-72823556D01*
X186430990Y-72907221D01*
X186568185Y-73019815D01*
X186680779Y-73157010D01*
X186764444Y-73313535D01*
X186792431Y-73405797D01*
X186815963Y-73483373D01*
X186833359Y-73660000D01*
X186815963Y-73836627D01*
X186815962Y-73836630D01*
X186764444Y-74006465D01*
X186680779Y-74162990D01*
X186568185Y-74300185D01*
X186430990Y-74412779D01*
X186274465Y-74496444D01*
X186136485Y-74538299D01*
X186104627Y-74547963D01*
X185972258Y-74561000D01*
X185883742Y-74561000D01*
X185751373Y-74547963D01*
X185719515Y-74538299D01*
X185581535Y-74496444D01*
X185425010Y-74412779D01*
X185287815Y-74300185D01*
X185175221Y-74162990D01*
X185091556Y-74006465D01*
X185040038Y-73836630D01*
X185040037Y-73836627D01*
X185022641Y-73660000D01*
X185040037Y-73483373D01*
X185063569Y-73405797D01*
X185091556Y-73313535D01*
X185175221Y-73157010D01*
X185287815Y-73019815D01*
X185425010Y-72907221D01*
X185581535Y-72823556D01*
X185751370Y-72772038D01*
X185751373Y-72772037D01*
X185883742Y-72759000D01*
X185972258Y-72759000D01*
X186104627Y-72772037D01*
X186104627Y-72772037D01*
G37*
G36*
X183564627Y-72772037D02*
G01*
X183564630Y-72772038D01*
X183734465Y-72823556D01*
X183890990Y-72907221D01*
X184028185Y-73019815D01*
X184140779Y-73157010D01*
X184224444Y-73313535D01*
X184252431Y-73405797D01*
X184275963Y-73483373D01*
X184293359Y-73660000D01*
X184275963Y-73836627D01*
X184275962Y-73836630D01*
X184224444Y-74006465D01*
X184140779Y-74162990D01*
X184028185Y-74300185D01*
X183890990Y-74412779D01*
X183734465Y-74496444D01*
X183596485Y-74538299D01*
X183564627Y-74547963D01*
X183432258Y-74561000D01*
X183343742Y-74561000D01*
X183211373Y-74547963D01*
X183179515Y-74538299D01*
X183041535Y-74496444D01*
X182885010Y-74412779D01*
X182747815Y-74300185D01*
X182635221Y-74162990D01*
X182551556Y-74006465D01*
X182500038Y-73836630D01*
X182500037Y-73836627D01*
X182482641Y-73660000D01*
X182500037Y-73483373D01*
X182523569Y-73405797D01*
X182551556Y-73313535D01*
X182635221Y-73157010D01*
X182747815Y-73019815D01*
X182885010Y-72907221D01*
X183041535Y-72823556D01*
X183211370Y-72772038D01*
X183211373Y-72772037D01*
X183343742Y-72759000D01*
X183432258Y-72759000D01*
X183564627Y-72772037D01*
X183564627Y-72772037D01*
G37*
G36*
X226744627Y-72772037D02*
G01*
X226744630Y-72772038D01*
X226914465Y-72823556D01*
X227070990Y-72907221D01*
X227208185Y-73019815D01*
X227320779Y-73157010D01*
X227404444Y-73313535D01*
X227432431Y-73405797D01*
X227455963Y-73483373D01*
X227473359Y-73660000D01*
X227455963Y-73836627D01*
X227455962Y-73836630D01*
X227404444Y-74006465D01*
X227320779Y-74162990D01*
X227208185Y-74300185D01*
X227070990Y-74412779D01*
X226914465Y-74496444D01*
X226776485Y-74538299D01*
X226744627Y-74547963D01*
X226612258Y-74561000D01*
X226523742Y-74561000D01*
X226391373Y-74547963D01*
X226359515Y-74538299D01*
X226221535Y-74496444D01*
X226065010Y-74412779D01*
X225927815Y-74300185D01*
X225815221Y-74162990D01*
X225731556Y-74006465D01*
X225680038Y-73836630D01*
X225680037Y-73836627D01*
X225662641Y-73660000D01*
X225680037Y-73483373D01*
X225703569Y-73405797D01*
X225731556Y-73313535D01*
X225815221Y-73157010D01*
X225927815Y-73019815D01*
X226065010Y-72907221D01*
X226221535Y-72823556D01*
X226391370Y-72772038D01*
X226391373Y-72772037D01*
X226523742Y-72759000D01*
X226612258Y-72759000D01*
X226744627Y-72772037D01*
X226744627Y-72772037D01*
G37*
G36*
X210943950Y-73336218D02*
G01*
X209811448Y-74468720D01*
X209527474Y-74184746D01*
X210659976Y-73052244D01*
X210943950Y-73336218D01*
X210943950Y-73336218D01*
G37*
G36*
X196872526Y-74184746D02*
G01*
X196588552Y-74468720D01*
X195456050Y-73336218D01*
X195740024Y-73052244D01*
X196872526Y-74184746D01*
X196872526Y-74184746D01*
G37*
G36*
X197226079Y-73831192D02*
G01*
X196942105Y-74115166D01*
X195809603Y-72982664D01*
X196093577Y-72698690D01*
X197226079Y-73831192D01*
X197226079Y-73831192D01*
G37*
G36*
X210590397Y-72982664D02*
G01*
X209457895Y-74115166D01*
X209173921Y-73831192D01*
X210306423Y-72698690D01*
X210590397Y-72982664D01*
X210590397Y-72982664D01*
G37*
G36*
X197579632Y-73477639D02*
G01*
X197295658Y-73761613D01*
X196163156Y-72629111D01*
X196447130Y-72345137D01*
X197579632Y-73477639D01*
X197579632Y-73477639D01*
G37*
G36*
X210236844Y-72629111D02*
G01*
X209104342Y-73761613D01*
X208820368Y-73477639D01*
X209952870Y-72345137D01*
X210236844Y-72629111D01*
X210236844Y-72629111D01*
G37*
G36*
X209883290Y-72275557D02*
G01*
X208750788Y-73408059D01*
X208466814Y-73124085D01*
X209599316Y-71991583D01*
X209883290Y-72275557D01*
X209883290Y-72275557D01*
G37*
G36*
X197933186Y-73124085D02*
G01*
X197649212Y-73408059D01*
X196516710Y-72275557D01*
X196800684Y-71991583D01*
X197933186Y-73124085D01*
X197933186Y-73124085D01*
G37*
G36*
X198286739Y-72770532D02*
G01*
X198002765Y-73054506D01*
X196870263Y-71922004D01*
X197154237Y-71638030D01*
X198286739Y-72770532D01*
X198286739Y-72770532D01*
G37*
G36*
X209529737Y-71922004D02*
G01*
X208397235Y-73054506D01*
X208113261Y-72770532D01*
X209245763Y-71638030D01*
X209529737Y-71922004D01*
X209529737Y-71922004D01*
G37*
G36*
X209176184Y-71568451D02*
G01*
X208043682Y-72700953D01*
X207759708Y-72416979D01*
X208892210Y-71284477D01*
X209176184Y-71568451D01*
X209176184Y-71568451D01*
G37*
G36*
X198640292Y-72416979D02*
G01*
X198356318Y-72700953D01*
X197223816Y-71568451D01*
X197507790Y-71284477D01*
X198640292Y-72416979D01*
X198640292Y-72416979D01*
G37*
G36*
X198993846Y-72063425D02*
G01*
X198709872Y-72347399D01*
X197577370Y-71214897D01*
X197861344Y-70930923D01*
X198993846Y-72063425D01*
X198993846Y-72063425D01*
G37*
G36*
X208822630Y-71214897D02*
G01*
X207690128Y-72347399D01*
X207406154Y-72063425D01*
X208538656Y-70930923D01*
X208822630Y-71214897D01*
X208822630Y-71214897D01*
G37*
G36*
X183564627Y-70232037D02*
G01*
X183564630Y-70232038D01*
X183734465Y-70283556D01*
X183890990Y-70367221D01*
X184028185Y-70479815D01*
X184140779Y-70617010D01*
X184224444Y-70773535D01*
X184251080Y-70861344D01*
X184275963Y-70943373D01*
X184293359Y-71120000D01*
X184275963Y-71296627D01*
X184275962Y-71296630D01*
X184224444Y-71466465D01*
X184140779Y-71622990D01*
X184028185Y-71760185D01*
X183890990Y-71872779D01*
X183734465Y-71956444D01*
X183618625Y-71991583D01*
X183564627Y-72007963D01*
X183432258Y-72021000D01*
X183343742Y-72021000D01*
X183211373Y-72007963D01*
X183157375Y-71991583D01*
X183041535Y-71956444D01*
X182885010Y-71872779D01*
X182747815Y-71760185D01*
X182635221Y-71622990D01*
X182551556Y-71466465D01*
X182500038Y-71296630D01*
X182500037Y-71296627D01*
X182482641Y-71120000D01*
X182500037Y-70943373D01*
X182524920Y-70861344D01*
X182551556Y-70773535D01*
X182635221Y-70617010D01*
X182747815Y-70479815D01*
X182885010Y-70367221D01*
X183041535Y-70283556D01*
X183211370Y-70232038D01*
X183211373Y-70232037D01*
X183343742Y-70219000D01*
X183432258Y-70219000D01*
X183564627Y-70232037D01*
X183564627Y-70232037D01*
G37*
G36*
X186104627Y-70232037D02*
G01*
X186104630Y-70232038D01*
X186274465Y-70283556D01*
X186430990Y-70367221D01*
X186568185Y-70479815D01*
X186680779Y-70617010D01*
X186764444Y-70773535D01*
X186791080Y-70861344D01*
X186815963Y-70943373D01*
X186833359Y-71120000D01*
X186815963Y-71296627D01*
X186815962Y-71296630D01*
X186764444Y-71466465D01*
X186680779Y-71622990D01*
X186568185Y-71760185D01*
X186430990Y-71872779D01*
X186274465Y-71956444D01*
X186158625Y-71991583D01*
X186104627Y-72007963D01*
X185972258Y-72021000D01*
X185883742Y-72021000D01*
X185751373Y-72007963D01*
X185697375Y-71991583D01*
X185581535Y-71956444D01*
X185425010Y-71872779D01*
X185287815Y-71760185D01*
X185175221Y-71622990D01*
X185091556Y-71466465D01*
X185040038Y-71296630D01*
X185040037Y-71296627D01*
X185022641Y-71120000D01*
X185040037Y-70943373D01*
X185064920Y-70861344D01*
X185091556Y-70773535D01*
X185175221Y-70617010D01*
X185287815Y-70479815D01*
X185425010Y-70367221D01*
X185581535Y-70283556D01*
X185751370Y-70232038D01*
X185751373Y-70232037D01*
X185883742Y-70219000D01*
X185972258Y-70219000D01*
X186104627Y-70232037D01*
X186104627Y-70232037D01*
G37*
G36*
X226744627Y-70232037D02*
G01*
X226744630Y-70232038D01*
X226914465Y-70283556D01*
X227070990Y-70367221D01*
X227208185Y-70479815D01*
X227320779Y-70617010D01*
X227404444Y-70773535D01*
X227431080Y-70861344D01*
X227455963Y-70943373D01*
X227473359Y-71120000D01*
X227455963Y-71296627D01*
X227455962Y-71296630D01*
X227404444Y-71466465D01*
X227320779Y-71622990D01*
X227208185Y-71760185D01*
X227070990Y-71872779D01*
X226914465Y-71956444D01*
X226798625Y-71991583D01*
X226744627Y-72007963D01*
X226612258Y-72021000D01*
X226523742Y-72021000D01*
X226391373Y-72007963D01*
X226337375Y-71991583D01*
X226221535Y-71956444D01*
X226065010Y-71872779D01*
X225927815Y-71760185D01*
X225815221Y-71622990D01*
X225731556Y-71466465D01*
X225680038Y-71296630D01*
X225680037Y-71296627D01*
X225662641Y-71120000D01*
X225680037Y-70943373D01*
X225704920Y-70861344D01*
X225731556Y-70773535D01*
X225815221Y-70617010D01*
X225927815Y-70479815D01*
X226065010Y-70367221D01*
X226221535Y-70283556D01*
X226391370Y-70232038D01*
X226391373Y-70232037D01*
X226523742Y-70219000D01*
X226612258Y-70219000D01*
X226744627Y-70232037D01*
X226744627Y-70232037D01*
G37*
G36*
X229284627Y-70232037D02*
G01*
X229284630Y-70232038D01*
X229454465Y-70283556D01*
X229610990Y-70367221D01*
X229748185Y-70479815D01*
X229860779Y-70617010D01*
X229944444Y-70773535D01*
X229971080Y-70861344D01*
X229995963Y-70943373D01*
X230013359Y-71120000D01*
X229995963Y-71296627D01*
X229995962Y-71296630D01*
X229944444Y-71466465D01*
X229860779Y-71622990D01*
X229748185Y-71760185D01*
X229610990Y-71872779D01*
X229454465Y-71956444D01*
X229338625Y-71991583D01*
X229284627Y-72007963D01*
X229152258Y-72021000D01*
X229063742Y-72021000D01*
X228931373Y-72007963D01*
X228877375Y-71991583D01*
X228761535Y-71956444D01*
X228605010Y-71872779D01*
X228467815Y-71760185D01*
X228355221Y-71622990D01*
X228271556Y-71466465D01*
X228220038Y-71296630D01*
X228220037Y-71296627D01*
X228202641Y-71120000D01*
X228220037Y-70943373D01*
X228244920Y-70861344D01*
X228271556Y-70773535D01*
X228355221Y-70617010D01*
X228467815Y-70479815D01*
X228605010Y-70367221D01*
X228761535Y-70283556D01*
X228931370Y-70232038D01*
X228931373Y-70232037D01*
X229063742Y-70219000D01*
X229152258Y-70219000D01*
X229284627Y-70232037D01*
X229284627Y-70232037D01*
G37*
G36*
X208469077Y-70861344D02*
G01*
X207336575Y-71993846D01*
X207052601Y-71709872D01*
X208185103Y-70577370D01*
X208469077Y-70861344D01*
X208469077Y-70861344D01*
G37*
G36*
X199347399Y-71709872D02*
G01*
X199063425Y-71993846D01*
X197930923Y-70861344D01*
X198214897Y-70577370D01*
X199347399Y-71709872D01*
X199347399Y-71709872D01*
G37*
G36*
X219088979Y-70282641D02*
G01*
X217602641Y-71768979D01*
X213641429Y-67807767D01*
X215127767Y-66321429D01*
X219088979Y-70282641D01*
X219088979Y-70282641D01*
G37*
G36*
X208115523Y-70507790D02*
G01*
X206983021Y-71640292D01*
X206699047Y-71356318D01*
X207831549Y-70223816D01*
X208115523Y-70507790D01*
X208115523Y-70507790D01*
G37*
G36*
X199700953Y-71356318D02*
G01*
X199416979Y-71640292D01*
X198284477Y-70507790D01*
X198568451Y-70223816D01*
X199700953Y-71356318D01*
X199700953Y-71356318D01*
G37*
G36*
X200054506Y-71002765D02*
G01*
X199770532Y-71286739D01*
X198638030Y-70154237D01*
X198922004Y-69870263D01*
X200054506Y-71002765D01*
X200054506Y-71002765D01*
G37*
G36*
X207761970Y-70154237D02*
G01*
X206629468Y-71286739D01*
X206345494Y-71002765D01*
X207477996Y-69870263D01*
X207761970Y-70154237D01*
X207761970Y-70154237D01*
G37*
G36*
X207408417Y-69800684D02*
G01*
X206275915Y-70933186D01*
X205991941Y-70649212D01*
X207124443Y-69516710D01*
X207408417Y-69800684D01*
X207408417Y-69800684D01*
G37*
G36*
X200408059Y-70649212D02*
G01*
X200124085Y-70933186D01*
X198991583Y-69800684D01*
X199275557Y-69516710D01*
X200408059Y-70649212D01*
X200408059Y-70649212D01*
G37*
G36*
X211048203Y-69077416D02*
G01*
X211096302Y-69092006D01*
X211140635Y-69115703D01*
X211180463Y-69148389D01*
X211188556Y-69156482D01*
X211188562Y-69156487D01*
X211569339Y-69537264D01*
X211569344Y-69537270D01*
X211577437Y-69545363D01*
X211610123Y-69585191D01*
X211633820Y-69629524D01*
X211648410Y-69677623D01*
X211653338Y-69727653D01*
X211648410Y-69777683D01*
X211633820Y-69825782D01*
X211610123Y-69870115D01*
X211577437Y-69909943D01*
X211569344Y-69918036D01*
X211569339Y-69918042D01*
X210888042Y-70599339D01*
X210888036Y-70599344D01*
X210879943Y-70607437D01*
X210840115Y-70640123D01*
X210795782Y-70663820D01*
X210747683Y-70678410D01*
X210697653Y-70683338D01*
X210647623Y-70678410D01*
X210599524Y-70663820D01*
X210555191Y-70640123D01*
X210515363Y-70607437D01*
X210507270Y-70599344D01*
X210507264Y-70599339D01*
X210126487Y-70218562D01*
X210126482Y-70218556D01*
X210118389Y-70210463D01*
X210085703Y-70170635D01*
X210062006Y-70126302D01*
X210047416Y-70078203D01*
X210042488Y-70028173D01*
X210047416Y-69978143D01*
X210062006Y-69930044D01*
X210085703Y-69885711D01*
X210118389Y-69845883D01*
X210126482Y-69837790D01*
X210126487Y-69837784D01*
X210807784Y-69156487D01*
X210807790Y-69156482D01*
X210815883Y-69148389D01*
X210855711Y-69115703D01*
X210900044Y-69092006D01*
X210948143Y-69077416D01*
X210998173Y-69072488D01*
X211048203Y-69077416D01*
X211048203Y-69077416D01*
G37*
G36*
X207054863Y-69447130D02*
G01*
X205922361Y-70579632D01*
X205638387Y-70295658D01*
X206770889Y-69163156D01*
X207054863Y-69447130D01*
X207054863Y-69447130D01*
G37*
G36*
X200761613Y-70295658D02*
G01*
X200477639Y-70579632D01*
X199345137Y-69447130D01*
X199629111Y-69163156D01*
X200761613Y-70295658D01*
X200761613Y-70295658D01*
G37*
G36*
X201115166Y-69942105D02*
G01*
X200831192Y-70226079D01*
X199698690Y-69093577D01*
X199982664Y-68809603D01*
X201115166Y-69942105D01*
X201115166Y-69942105D01*
G37*
G36*
X206701310Y-69093577D02*
G01*
X205568808Y-70226079D01*
X205284834Y-69942105D01*
X206417336Y-68809603D01*
X206701310Y-69093577D01*
X206701310Y-69093577D01*
G37*
G36*
X194816857Y-68442416D02*
G01*
X194864956Y-68457006D01*
X194909289Y-68480703D01*
X194949117Y-68513389D01*
X194957210Y-68521482D01*
X194957216Y-68521487D01*
X195638513Y-69202784D01*
X195638518Y-69202790D01*
X195646611Y-69210883D01*
X195679297Y-69250711D01*
X195702994Y-69295044D01*
X195717584Y-69343143D01*
X195722512Y-69393173D01*
X195717584Y-69443203D01*
X195702994Y-69491302D01*
X195679297Y-69535635D01*
X195646611Y-69575463D01*
X195638518Y-69583556D01*
X195638513Y-69583562D01*
X195257736Y-69964339D01*
X195257730Y-69964344D01*
X195249637Y-69972437D01*
X195209809Y-70005123D01*
X195165476Y-70028820D01*
X195117377Y-70043410D01*
X195067347Y-70048338D01*
X195017317Y-70043410D01*
X194969218Y-70028820D01*
X194924885Y-70005123D01*
X194885057Y-69972437D01*
X194876964Y-69964344D01*
X194876958Y-69964339D01*
X194195661Y-69283042D01*
X194195656Y-69283036D01*
X194187563Y-69274943D01*
X194154877Y-69235115D01*
X194131180Y-69190782D01*
X194116590Y-69142683D01*
X194111662Y-69092653D01*
X194116590Y-69042623D01*
X194131180Y-68994524D01*
X194154877Y-68950191D01*
X194187563Y-68910363D01*
X194195656Y-68902270D01*
X194195661Y-68902264D01*
X194576438Y-68521487D01*
X194576444Y-68521482D01*
X194584537Y-68513389D01*
X194624365Y-68480703D01*
X194668698Y-68457006D01*
X194716797Y-68442416D01*
X194766827Y-68437488D01*
X194816857Y-68442416D01*
X194816857Y-68442416D01*
G37*
G36*
X201468720Y-69588552D02*
G01*
X201184746Y-69872526D01*
X200052244Y-68740024D01*
X200336218Y-68456050D01*
X201468720Y-69588552D01*
X201468720Y-69588552D01*
G37*
G36*
X206347756Y-68740024D02*
G01*
X205215254Y-69872526D01*
X204931280Y-69588552D01*
X206063782Y-68456050D01*
X206347756Y-68740024D01*
X206347756Y-68740024D01*
G37*
G36*
X201822273Y-69234998D02*
G01*
X201538299Y-69518972D01*
X200405797Y-68386470D01*
X200689771Y-68102496D01*
X201822273Y-69234998D01*
X201822273Y-69234998D01*
G37*
G36*
X205994203Y-68386470D02*
G01*
X204861701Y-69518972D01*
X204577727Y-69234998D01*
X205710229Y-68102496D01*
X205994203Y-68386470D01*
X205994203Y-68386470D01*
G37*
G36*
X229284627Y-67692037D02*
G01*
X229284630Y-67692038D01*
X229454465Y-67743556D01*
X229610990Y-67827221D01*
X229748185Y-67939815D01*
X229860779Y-68077010D01*
X229944444Y-68233535D01*
X229951785Y-68257736D01*
X229995963Y-68403373D01*
X230013359Y-68580000D01*
X229995963Y-68756627D01*
X229995962Y-68756630D01*
X229944444Y-68926465D01*
X229860779Y-69082990D01*
X229748185Y-69220185D01*
X229610990Y-69332779D01*
X229454465Y-69416444D01*
X229304053Y-69462070D01*
X229284627Y-69467963D01*
X229152258Y-69481000D01*
X229063742Y-69481000D01*
X228931373Y-69467963D01*
X228911947Y-69462070D01*
X228761535Y-69416444D01*
X228605010Y-69332779D01*
X228467815Y-69220185D01*
X228355221Y-69082990D01*
X228271556Y-68926465D01*
X228220038Y-68756630D01*
X228220037Y-68756627D01*
X228202641Y-68580000D01*
X228220037Y-68403373D01*
X228264215Y-68257736D01*
X228271556Y-68233535D01*
X228355221Y-68077010D01*
X228467815Y-67939815D01*
X228605010Y-67827221D01*
X228761535Y-67743556D01*
X228931370Y-67692038D01*
X228931373Y-67692037D01*
X229063742Y-67679000D01*
X229152258Y-67679000D01*
X229284627Y-67692037D01*
X229284627Y-67692037D01*
G37*
G36*
X186104627Y-67692037D02*
G01*
X186104630Y-67692038D01*
X186274465Y-67743556D01*
X186430990Y-67827221D01*
X186568185Y-67939815D01*
X186680779Y-68077010D01*
X186764444Y-68233535D01*
X186771785Y-68257736D01*
X186815963Y-68403373D01*
X186833359Y-68580000D01*
X186815963Y-68756627D01*
X186815962Y-68756630D01*
X186764444Y-68926465D01*
X186680779Y-69082990D01*
X186568185Y-69220185D01*
X186430990Y-69332779D01*
X186274465Y-69416444D01*
X186124053Y-69462070D01*
X186104627Y-69467963D01*
X185972258Y-69481000D01*
X185883742Y-69481000D01*
X185751373Y-69467963D01*
X185731947Y-69462070D01*
X185581535Y-69416444D01*
X185425010Y-69332779D01*
X185287815Y-69220185D01*
X185175221Y-69082990D01*
X185091556Y-68926465D01*
X185040038Y-68756630D01*
X185040037Y-68756627D01*
X185022641Y-68580000D01*
X185040037Y-68403373D01*
X185084215Y-68257736D01*
X185091556Y-68233535D01*
X185175221Y-68077010D01*
X185287815Y-67939815D01*
X185425010Y-67827221D01*
X185581535Y-67743556D01*
X185751370Y-67692038D01*
X185751373Y-67692037D01*
X185883742Y-67679000D01*
X185972258Y-67679000D01*
X186104627Y-67692037D01*
X186104627Y-67692037D01*
G37*
G36*
X183564627Y-67692037D02*
G01*
X183564630Y-67692038D01*
X183734465Y-67743556D01*
X183890990Y-67827221D01*
X184028185Y-67939815D01*
X184140779Y-68077010D01*
X184224444Y-68233535D01*
X184231785Y-68257736D01*
X184275963Y-68403373D01*
X184293359Y-68580000D01*
X184275963Y-68756627D01*
X184275962Y-68756630D01*
X184224444Y-68926465D01*
X184140779Y-69082990D01*
X184028185Y-69220185D01*
X183890990Y-69332779D01*
X183734465Y-69416444D01*
X183584053Y-69462070D01*
X183564627Y-69467963D01*
X183432258Y-69481000D01*
X183343742Y-69481000D01*
X183211373Y-69467963D01*
X183191947Y-69462070D01*
X183041535Y-69416444D01*
X182885010Y-69332779D01*
X182747815Y-69220185D01*
X182635221Y-69082990D01*
X182551556Y-68926465D01*
X182500038Y-68756630D01*
X182500037Y-68756627D01*
X182482641Y-68580000D01*
X182500037Y-68403373D01*
X182544215Y-68257736D01*
X182551556Y-68233535D01*
X182635221Y-68077010D01*
X182747815Y-67939815D01*
X182885010Y-67827221D01*
X183041535Y-67743556D01*
X183211370Y-67692038D01*
X183211373Y-67692037D01*
X183343742Y-67679000D01*
X183432258Y-67679000D01*
X183564627Y-67692037D01*
X183564627Y-67692037D01*
G37*
G36*
X226744627Y-67692037D02*
G01*
X226744630Y-67692038D01*
X226914465Y-67743556D01*
X227070990Y-67827221D01*
X227208185Y-67939815D01*
X227320779Y-68077010D01*
X227404444Y-68233535D01*
X227411785Y-68257736D01*
X227455963Y-68403373D01*
X227473359Y-68580000D01*
X227455963Y-68756627D01*
X227455962Y-68756630D01*
X227404444Y-68926465D01*
X227320779Y-69082990D01*
X227208185Y-69220185D01*
X227070990Y-69332779D01*
X226914465Y-69416444D01*
X226764053Y-69462070D01*
X226744627Y-69467963D01*
X226612258Y-69481000D01*
X226523742Y-69481000D01*
X226391373Y-69467963D01*
X226371947Y-69462070D01*
X226221535Y-69416444D01*
X226065010Y-69332779D01*
X225927815Y-69220185D01*
X225815221Y-69082990D01*
X225731556Y-68926465D01*
X225680038Y-68756630D01*
X225680037Y-68756627D01*
X225662641Y-68580000D01*
X225680037Y-68403373D01*
X225724215Y-68257736D01*
X225731556Y-68233535D01*
X225815221Y-68077010D01*
X225927815Y-67939815D01*
X226065010Y-67827221D01*
X226221535Y-67743556D01*
X226391370Y-67692038D01*
X226391373Y-67692037D01*
X226523742Y-67679000D01*
X226612258Y-67679000D01*
X226744627Y-67692037D01*
X226744627Y-67692037D01*
G37*
G36*
X209722377Y-67751590D02*
G01*
X209770476Y-67766180D01*
X209814809Y-67789877D01*
X209854637Y-67822563D01*
X209862730Y-67830656D01*
X209862736Y-67830661D01*
X210243513Y-68211438D01*
X210243518Y-68211444D01*
X210251611Y-68219537D01*
X210284297Y-68259365D01*
X210307994Y-68303698D01*
X210322584Y-68351797D01*
X210327512Y-68401827D01*
X210322584Y-68451857D01*
X210307994Y-68499956D01*
X210284297Y-68544289D01*
X210251611Y-68584117D01*
X210243518Y-68592210D01*
X210243513Y-68592216D01*
X209562216Y-69273513D01*
X209562210Y-69273518D01*
X209554117Y-69281611D01*
X209514289Y-69314297D01*
X209469956Y-69337994D01*
X209421857Y-69352584D01*
X209371827Y-69357512D01*
X209321797Y-69352584D01*
X209273698Y-69337994D01*
X209229365Y-69314297D01*
X209189537Y-69281611D01*
X209181444Y-69273518D01*
X209181438Y-69273513D01*
X208800661Y-68892736D01*
X208800656Y-68892730D01*
X208792563Y-68884637D01*
X208759877Y-68844809D01*
X208736180Y-68800476D01*
X208721590Y-68752377D01*
X208716662Y-68702347D01*
X208721590Y-68652317D01*
X208736180Y-68604218D01*
X208759877Y-68559885D01*
X208792563Y-68520057D01*
X208800656Y-68511964D01*
X208800661Y-68511958D01*
X209481958Y-67830661D01*
X209481964Y-67830656D01*
X209490057Y-67822563D01*
X209529885Y-67789877D01*
X209574218Y-67766180D01*
X209622317Y-67751590D01*
X209672347Y-67746662D01*
X209722377Y-67751590D01*
X209722377Y-67751590D01*
G37*
G36*
X205640650Y-68032917D02*
G01*
X204508148Y-69165419D01*
X204224174Y-68881445D01*
X205356676Y-67748943D01*
X205640650Y-68032917D01*
X205640650Y-68032917D01*
G37*
G36*
X202175826Y-68881445D02*
G01*
X201891852Y-69165419D01*
X200759350Y-68032917D01*
X201043324Y-67748943D01*
X202175826Y-68881445D01*
X202175826Y-68881445D01*
G37*
G36*
X205287096Y-67679363D02*
G01*
X204154594Y-68811865D01*
X203870620Y-68527891D01*
X205003122Y-67395389D01*
X205287096Y-67679363D01*
X205287096Y-67679363D01*
G37*
G36*
X202529380Y-68527891D02*
G01*
X202245406Y-68811865D01*
X201112904Y-67679363D01*
X201396878Y-67395389D01*
X202529380Y-68527891D01*
X202529380Y-68527891D01*
G37*
G36*
X196142683Y-67116590D02*
G01*
X196190782Y-67131180D01*
X196235115Y-67154877D01*
X196274943Y-67187563D01*
X196283036Y-67195656D01*
X196283042Y-67195661D01*
X196964339Y-67876958D01*
X196964344Y-67876964D01*
X196972437Y-67885057D01*
X197005123Y-67924885D01*
X197028820Y-67969218D01*
X197043410Y-68017317D01*
X197048338Y-68067347D01*
X197043410Y-68117377D01*
X197028820Y-68165476D01*
X197005123Y-68209809D01*
X196972437Y-68249637D01*
X196964344Y-68257730D01*
X196964339Y-68257736D01*
X196583562Y-68638513D01*
X196583556Y-68638518D01*
X196575463Y-68646611D01*
X196535635Y-68679297D01*
X196491302Y-68702994D01*
X196443203Y-68717584D01*
X196393173Y-68722512D01*
X196343143Y-68717584D01*
X196295044Y-68702994D01*
X196250711Y-68679297D01*
X196210883Y-68646611D01*
X196202790Y-68638518D01*
X196202784Y-68638513D01*
X195521487Y-67957216D01*
X195521482Y-67957210D01*
X195513389Y-67949117D01*
X195480703Y-67909289D01*
X195457006Y-67864956D01*
X195442416Y-67816857D01*
X195437488Y-67766827D01*
X195442416Y-67716797D01*
X195457006Y-67668698D01*
X195480703Y-67624365D01*
X195513389Y-67584537D01*
X195521482Y-67576444D01*
X195521487Y-67576438D01*
X195902264Y-67195661D01*
X195902270Y-67195656D01*
X195910363Y-67187563D01*
X195950191Y-67154877D01*
X195994524Y-67131180D01*
X196042623Y-67116590D01*
X196092653Y-67111662D01*
X196142683Y-67116590D01*
X196142683Y-67116590D01*
G37*
G36*
X226744627Y-65152037D02*
G01*
X226744630Y-65152038D01*
X226914465Y-65203556D01*
X227070990Y-65287221D01*
X227208185Y-65399815D01*
X227320779Y-65537010D01*
X227404444Y-65693535D01*
X227424172Y-65758571D01*
X227455963Y-65863373D01*
X227473359Y-66040000D01*
X227455963Y-66216627D01*
X227455962Y-66216630D01*
X227404444Y-66386465D01*
X227320779Y-66542990D01*
X227208185Y-66680185D01*
X227070990Y-66792779D01*
X226914465Y-66876444D01*
X226764053Y-66922070D01*
X226744627Y-66927963D01*
X226612258Y-66941000D01*
X226523742Y-66941000D01*
X226391373Y-66927963D01*
X226371947Y-66922070D01*
X226221535Y-66876444D01*
X226065010Y-66792779D01*
X225927815Y-66680185D01*
X225815221Y-66542990D01*
X225731556Y-66386465D01*
X225680038Y-66216630D01*
X225680037Y-66216627D01*
X225662641Y-66040000D01*
X225680037Y-65863373D01*
X225711828Y-65758571D01*
X225731556Y-65693535D01*
X225815221Y-65537010D01*
X225927815Y-65399815D01*
X226065010Y-65287221D01*
X226221535Y-65203556D01*
X226391370Y-65152038D01*
X226391373Y-65152037D01*
X226523742Y-65139000D01*
X226612258Y-65139000D01*
X226744627Y-65152037D01*
X226744627Y-65152037D01*
G37*
G36*
X186104627Y-65152037D02*
G01*
X186104630Y-65152038D01*
X186274465Y-65203556D01*
X186430990Y-65287221D01*
X186568185Y-65399815D01*
X186680779Y-65537010D01*
X186764444Y-65693535D01*
X186784172Y-65758571D01*
X186815963Y-65863373D01*
X186833359Y-66040000D01*
X186815963Y-66216627D01*
X186815962Y-66216630D01*
X186764444Y-66386465D01*
X186680779Y-66542990D01*
X186568185Y-66680185D01*
X186430990Y-66792779D01*
X186274465Y-66876444D01*
X186124053Y-66922070D01*
X186104627Y-66927963D01*
X185972258Y-66941000D01*
X185883742Y-66941000D01*
X185751373Y-66927963D01*
X185731947Y-66922070D01*
X185581535Y-66876444D01*
X185425010Y-66792779D01*
X185287815Y-66680185D01*
X185175221Y-66542990D01*
X185091556Y-66386465D01*
X185040038Y-66216630D01*
X185040037Y-66216627D01*
X185022641Y-66040000D01*
X185040037Y-65863373D01*
X185071828Y-65758571D01*
X185091556Y-65693535D01*
X185175221Y-65537010D01*
X185287815Y-65399815D01*
X185425010Y-65287221D01*
X185581535Y-65203556D01*
X185751370Y-65152038D01*
X185751373Y-65152037D01*
X185883742Y-65139000D01*
X185972258Y-65139000D01*
X186104627Y-65152037D01*
X186104627Y-65152037D01*
G37*
G36*
X183564627Y-65152037D02*
G01*
X183564630Y-65152038D01*
X183734465Y-65203556D01*
X183890990Y-65287221D01*
X184028185Y-65399815D01*
X184140779Y-65537010D01*
X184224444Y-65693535D01*
X184244172Y-65758571D01*
X184275963Y-65863373D01*
X184293359Y-66040000D01*
X184275963Y-66216627D01*
X184275962Y-66216630D01*
X184224444Y-66386465D01*
X184140779Y-66542990D01*
X184028185Y-66680185D01*
X183890990Y-66792779D01*
X183734465Y-66876444D01*
X183584053Y-66922070D01*
X183564627Y-66927963D01*
X183432258Y-66941000D01*
X183343742Y-66941000D01*
X183211373Y-66927963D01*
X183191947Y-66922070D01*
X183041535Y-66876444D01*
X182885010Y-66792779D01*
X182747815Y-66680185D01*
X182635221Y-66542990D01*
X182551556Y-66386465D01*
X182500038Y-66216630D01*
X182500037Y-66216627D01*
X182482641Y-66040000D01*
X182500037Y-65863373D01*
X182531828Y-65758571D01*
X182551556Y-65693535D01*
X182635221Y-65537010D01*
X182747815Y-65399815D01*
X182885010Y-65287221D01*
X183041535Y-65203556D01*
X183211370Y-65152038D01*
X183211373Y-65152037D01*
X183343742Y-65139000D01*
X183432258Y-65139000D01*
X183564627Y-65152037D01*
X183564627Y-65152037D01*
G37*
G36*
X229284627Y-65152037D02*
G01*
X229284630Y-65152038D01*
X229454465Y-65203556D01*
X229610990Y-65287221D01*
X229748185Y-65399815D01*
X229860779Y-65537010D01*
X229944444Y-65693535D01*
X229964172Y-65758571D01*
X229995963Y-65863373D01*
X230013359Y-66040000D01*
X229995963Y-66216627D01*
X229995962Y-66216630D01*
X229944444Y-66386465D01*
X229860779Y-66542990D01*
X229748185Y-66680185D01*
X229610990Y-66792779D01*
X229454465Y-66876444D01*
X229304053Y-66922070D01*
X229284627Y-66927963D01*
X229152258Y-66941000D01*
X229063742Y-66941000D01*
X228931373Y-66927963D01*
X228911947Y-66922070D01*
X228761535Y-66876444D01*
X228605010Y-66792779D01*
X228467815Y-66680185D01*
X228355221Y-66542990D01*
X228271556Y-66386465D01*
X228220038Y-66216630D01*
X228220037Y-66216627D01*
X228202641Y-66040000D01*
X228220037Y-65863373D01*
X228251828Y-65758571D01*
X228271556Y-65693535D01*
X228355221Y-65537010D01*
X228467815Y-65399815D01*
X228605010Y-65287221D01*
X228761535Y-65203556D01*
X228931370Y-65152038D01*
X228931373Y-65152037D01*
X229063742Y-65139000D01*
X229152258Y-65139000D01*
X229284627Y-65152037D01*
X229284627Y-65152037D01*
G37*
G36*
X213078571Y-64272233D02*
G01*
X211592233Y-65758571D01*
X207631021Y-61797359D01*
X209117359Y-60311021D01*
X213078571Y-64272233D01*
X213078571Y-64272233D01*
G37*
G36*
X218668203Y-63997416D02*
G01*
X218716302Y-64012006D01*
X218760635Y-64035703D01*
X218800463Y-64068389D01*
X218808556Y-64076482D01*
X218808562Y-64076487D01*
X219189339Y-64457264D01*
X219189344Y-64457270D01*
X219197437Y-64465363D01*
X219230123Y-64505191D01*
X219253820Y-64549524D01*
X219268410Y-64597623D01*
X219273338Y-64647653D01*
X219268410Y-64697683D01*
X219253820Y-64745782D01*
X219230123Y-64790115D01*
X219197437Y-64829943D01*
X219189344Y-64838036D01*
X219189339Y-64838042D01*
X218508042Y-65519339D01*
X218508036Y-65519344D01*
X218499943Y-65527437D01*
X218460115Y-65560123D01*
X218415782Y-65583820D01*
X218367683Y-65598410D01*
X218317653Y-65603338D01*
X218267623Y-65598410D01*
X218219524Y-65583820D01*
X218175191Y-65560123D01*
X218135363Y-65527437D01*
X218127270Y-65519344D01*
X218127264Y-65519339D01*
X217746487Y-65138562D01*
X217746482Y-65138556D01*
X217738389Y-65130463D01*
X217705703Y-65090635D01*
X217682006Y-65046302D01*
X217667416Y-64998203D01*
X217662488Y-64948173D01*
X217667416Y-64898143D01*
X217682006Y-64850044D01*
X217705703Y-64805711D01*
X217738389Y-64765883D01*
X217746482Y-64757790D01*
X217746487Y-64757784D01*
X218427784Y-64076487D01*
X218427790Y-64076482D01*
X218435883Y-64068389D01*
X218475711Y-64035703D01*
X218520044Y-64012006D01*
X218568143Y-63997416D01*
X218618173Y-63992488D01*
X218668203Y-63997416D01*
X218668203Y-63997416D01*
G37*
G36*
X183564627Y-62612037D02*
G01*
X183564630Y-62612038D01*
X183734465Y-62663556D01*
X183890990Y-62747221D01*
X184028185Y-62859815D01*
X184140779Y-62997010D01*
X184224444Y-63153535D01*
X184232279Y-63179365D01*
X184275963Y-63323373D01*
X184293359Y-63500000D01*
X184275963Y-63676627D01*
X184275962Y-63676630D01*
X184224444Y-63846465D01*
X184140779Y-64002990D01*
X184028185Y-64140185D01*
X183890990Y-64252779D01*
X183734465Y-64336444D01*
X183584053Y-64382070D01*
X183564627Y-64387963D01*
X183432258Y-64401000D01*
X183343742Y-64401000D01*
X183211373Y-64387963D01*
X183191947Y-64382070D01*
X183041535Y-64336444D01*
X182885010Y-64252779D01*
X182747815Y-64140185D01*
X182635221Y-64002990D01*
X182551556Y-63846465D01*
X182500038Y-63676630D01*
X182500037Y-63676627D01*
X182482641Y-63500000D01*
X182500037Y-63323373D01*
X182543721Y-63179365D01*
X182551556Y-63153535D01*
X182635221Y-62997010D01*
X182747815Y-62859815D01*
X182885010Y-62747221D01*
X183041535Y-62663556D01*
X183211370Y-62612038D01*
X183211373Y-62612037D01*
X183343742Y-62599000D01*
X183432258Y-62599000D01*
X183564627Y-62612037D01*
X183564627Y-62612037D01*
G37*
G36*
X226744627Y-62612037D02*
G01*
X226744630Y-62612038D01*
X226914465Y-62663556D01*
X227070990Y-62747221D01*
X227208185Y-62859815D01*
X227320779Y-62997010D01*
X227404444Y-63153535D01*
X227412279Y-63179365D01*
X227455963Y-63323373D01*
X227473359Y-63500000D01*
X227455963Y-63676627D01*
X227455962Y-63676630D01*
X227404444Y-63846465D01*
X227320779Y-64002990D01*
X227208185Y-64140185D01*
X227070990Y-64252779D01*
X226914465Y-64336444D01*
X226764053Y-64382070D01*
X226744627Y-64387963D01*
X226612258Y-64401000D01*
X226523742Y-64401000D01*
X226391373Y-64387963D01*
X226371947Y-64382070D01*
X226221535Y-64336444D01*
X226065010Y-64252779D01*
X225927815Y-64140185D01*
X225815221Y-64002990D01*
X225731556Y-63846465D01*
X225680038Y-63676630D01*
X225680037Y-63676627D01*
X225662641Y-63500000D01*
X225680037Y-63323373D01*
X225723721Y-63179365D01*
X225731556Y-63153535D01*
X225815221Y-62997010D01*
X225927815Y-62859815D01*
X226065010Y-62747221D01*
X226221535Y-62663556D01*
X226391370Y-62612038D01*
X226391373Y-62612037D01*
X226523742Y-62599000D01*
X226612258Y-62599000D01*
X226744627Y-62612037D01*
X226744627Y-62612037D01*
G37*
G36*
X186104627Y-62612037D02*
G01*
X186104630Y-62612038D01*
X186274465Y-62663556D01*
X186430990Y-62747221D01*
X186568185Y-62859815D01*
X186680779Y-62997010D01*
X186764444Y-63153535D01*
X186772279Y-63179365D01*
X186815963Y-63323373D01*
X186833359Y-63500000D01*
X186815963Y-63676627D01*
X186815962Y-63676630D01*
X186764444Y-63846465D01*
X186680779Y-64002990D01*
X186568185Y-64140185D01*
X186430990Y-64252779D01*
X186274465Y-64336444D01*
X186124053Y-64382070D01*
X186104627Y-64387963D01*
X185972258Y-64401000D01*
X185883742Y-64401000D01*
X185751373Y-64387963D01*
X185731947Y-64382070D01*
X185581535Y-64336444D01*
X185425010Y-64252779D01*
X185287815Y-64140185D01*
X185175221Y-64002990D01*
X185091556Y-63846465D01*
X185040038Y-63676630D01*
X185040037Y-63676627D01*
X185022641Y-63500000D01*
X185040037Y-63323373D01*
X185083721Y-63179365D01*
X185091556Y-63153535D01*
X185175221Y-62997010D01*
X185287815Y-62859815D01*
X185425010Y-62747221D01*
X185581535Y-62663556D01*
X185751370Y-62612038D01*
X185751373Y-62612037D01*
X185883742Y-62599000D01*
X185972258Y-62599000D01*
X186104627Y-62612037D01*
X186104627Y-62612037D01*
G37*
G36*
X229284627Y-62612037D02*
G01*
X229284630Y-62612038D01*
X229454465Y-62663556D01*
X229610990Y-62747221D01*
X229748185Y-62859815D01*
X229860779Y-62997010D01*
X229944444Y-63153535D01*
X229952279Y-63179365D01*
X229995963Y-63323373D01*
X230013359Y-63500000D01*
X229995963Y-63676627D01*
X229995962Y-63676630D01*
X229944444Y-63846465D01*
X229860779Y-64002990D01*
X229748185Y-64140185D01*
X229610990Y-64252779D01*
X229454465Y-64336444D01*
X229304053Y-64382070D01*
X229284627Y-64387963D01*
X229152258Y-64401000D01*
X229063742Y-64401000D01*
X228931373Y-64387963D01*
X228911947Y-64382070D01*
X228761535Y-64336444D01*
X228605010Y-64252779D01*
X228467815Y-64140185D01*
X228355221Y-64002990D01*
X228271556Y-63846465D01*
X228220038Y-63676630D01*
X228220037Y-63676627D01*
X228202641Y-63500000D01*
X228220037Y-63323373D01*
X228263721Y-63179365D01*
X228271556Y-63153535D01*
X228355221Y-62997010D01*
X228467815Y-62859815D01*
X228605010Y-62747221D01*
X228761535Y-62663556D01*
X228931370Y-62612038D01*
X228931373Y-62612037D01*
X229063742Y-62599000D01*
X229152258Y-62599000D01*
X229284627Y-62612037D01*
X229284627Y-62612037D01*
G37*
G36*
X217342377Y-62671590D02*
G01*
X217390476Y-62686180D01*
X217434809Y-62709877D01*
X217474637Y-62742563D01*
X217482730Y-62750656D01*
X217482736Y-62750661D01*
X217863513Y-63131438D01*
X217863518Y-63131444D01*
X217871611Y-63139537D01*
X217904297Y-63179365D01*
X217927994Y-63223698D01*
X217942584Y-63271797D01*
X217947512Y-63321827D01*
X217942584Y-63371857D01*
X217927994Y-63419956D01*
X217904297Y-63464289D01*
X217871611Y-63504117D01*
X217863518Y-63512210D01*
X217863513Y-63512216D01*
X217182216Y-64193513D01*
X217182210Y-64193518D01*
X217174117Y-64201611D01*
X217134289Y-64234297D01*
X217089956Y-64257994D01*
X217041857Y-64272584D01*
X216991827Y-64277512D01*
X216941797Y-64272584D01*
X216893698Y-64257994D01*
X216849365Y-64234297D01*
X216809537Y-64201611D01*
X216801444Y-64193518D01*
X216801438Y-64193513D01*
X216420661Y-63812736D01*
X216420656Y-63812730D01*
X216412563Y-63804637D01*
X216379877Y-63764809D01*
X216356180Y-63720476D01*
X216341590Y-63672377D01*
X216336662Y-63622347D01*
X216341590Y-63572317D01*
X216356180Y-63524218D01*
X216379877Y-63479885D01*
X216412563Y-63440057D01*
X216420656Y-63431964D01*
X216420661Y-63431958D01*
X217101958Y-62750661D01*
X217101964Y-62750656D01*
X217110057Y-62742563D01*
X217149885Y-62709877D01*
X217194218Y-62686180D01*
X217242317Y-62671590D01*
X217292347Y-62666662D01*
X217342377Y-62671590D01*
X217342377Y-62671590D01*
G37*
G36*
X215893204Y-61072417D02*
G01*
X215941303Y-61087007D01*
X215985636Y-61110704D01*
X216025464Y-61143390D01*
X216033557Y-61151483D01*
X216033563Y-61151488D01*
X216414340Y-61532265D01*
X216414345Y-61532271D01*
X216422438Y-61540364D01*
X216455124Y-61580192D01*
X216478821Y-61624525D01*
X216493411Y-61672624D01*
X216498339Y-61722654D01*
X216493411Y-61772684D01*
X216478821Y-61820783D01*
X216455124Y-61865116D01*
X216422438Y-61904944D01*
X216414345Y-61913037D01*
X216414340Y-61913043D01*
X215733043Y-62594340D01*
X215733037Y-62594345D01*
X215724944Y-62602438D01*
X215685116Y-62635124D01*
X215640783Y-62658821D01*
X215592684Y-62673411D01*
X215542654Y-62678339D01*
X215492624Y-62673411D01*
X215444525Y-62658821D01*
X215400192Y-62635124D01*
X215360364Y-62602438D01*
X215352271Y-62594345D01*
X215352265Y-62594340D01*
X214971488Y-62213563D01*
X214971483Y-62213557D01*
X214963390Y-62205464D01*
X214930704Y-62165636D01*
X214907007Y-62121303D01*
X214892417Y-62073204D01*
X214887489Y-62023174D01*
X214892417Y-61973144D01*
X214907007Y-61925045D01*
X214930704Y-61880712D01*
X214963390Y-61840884D01*
X214971483Y-61832791D01*
X214971488Y-61832785D01*
X215652785Y-61151488D01*
X215652791Y-61151483D01*
X215660884Y-61143390D01*
X215700712Y-61110704D01*
X215745045Y-61087007D01*
X215793144Y-61072417D01*
X215843174Y-61067489D01*
X215893204Y-61072417D01*
X215893204Y-61072417D01*
G37*
G36*
X226744627Y-60072037D02*
G01*
X226744630Y-60072038D01*
X226914465Y-60123556D01*
X227070990Y-60207221D01*
X227208185Y-60319815D01*
X227320779Y-60457010D01*
X227404444Y-60613535D01*
X227429868Y-60697348D01*
X227455963Y-60783373D01*
X227473359Y-60960000D01*
X227455963Y-61136627D01*
X227455962Y-61136630D01*
X227404444Y-61306465D01*
X227320779Y-61462990D01*
X227208185Y-61600185D01*
X227070990Y-61712779D01*
X226914465Y-61796444D01*
X226767963Y-61840884D01*
X226744627Y-61847963D01*
X226612258Y-61861000D01*
X226523742Y-61861000D01*
X226391373Y-61847963D01*
X226368037Y-61840884D01*
X226221535Y-61796444D01*
X226065010Y-61712779D01*
X225927815Y-61600185D01*
X225815221Y-61462990D01*
X225731556Y-61306465D01*
X225680038Y-61136630D01*
X225680037Y-61136627D01*
X225662641Y-60960000D01*
X225680037Y-60783373D01*
X225706132Y-60697348D01*
X225731556Y-60613535D01*
X225815221Y-60457010D01*
X225927815Y-60319815D01*
X226065010Y-60207221D01*
X226221535Y-60123556D01*
X226391370Y-60072038D01*
X226391373Y-60072037D01*
X226523742Y-60059000D01*
X226612258Y-60059000D01*
X226744627Y-60072037D01*
X226744627Y-60072037D01*
G37*
G36*
X186104627Y-60072037D02*
G01*
X186104630Y-60072038D01*
X186274465Y-60123556D01*
X186430990Y-60207221D01*
X186568185Y-60319815D01*
X186680779Y-60457010D01*
X186764444Y-60613535D01*
X186789868Y-60697348D01*
X186815963Y-60783373D01*
X186833359Y-60960000D01*
X186815963Y-61136627D01*
X186815962Y-61136630D01*
X186764444Y-61306465D01*
X186680779Y-61462990D01*
X186568185Y-61600185D01*
X186430990Y-61712779D01*
X186274465Y-61796444D01*
X186127963Y-61840884D01*
X186104627Y-61847963D01*
X185972258Y-61861000D01*
X185883742Y-61861000D01*
X185751373Y-61847963D01*
X185728037Y-61840884D01*
X185581535Y-61796444D01*
X185425010Y-61712779D01*
X185287815Y-61600185D01*
X185175221Y-61462990D01*
X185091556Y-61306465D01*
X185040038Y-61136630D01*
X185040037Y-61136627D01*
X185022641Y-60960000D01*
X185040037Y-60783373D01*
X185066132Y-60697348D01*
X185091556Y-60613535D01*
X185175221Y-60457010D01*
X185287815Y-60319815D01*
X185425010Y-60207221D01*
X185581535Y-60123556D01*
X185751370Y-60072038D01*
X185751373Y-60072037D01*
X185883742Y-60059000D01*
X185972258Y-60059000D01*
X186104627Y-60072037D01*
X186104627Y-60072037D01*
G37*
G36*
X183564627Y-60072037D02*
G01*
X183564630Y-60072038D01*
X183734465Y-60123556D01*
X183890990Y-60207221D01*
X184028185Y-60319815D01*
X184140779Y-60457010D01*
X184224444Y-60613535D01*
X184249868Y-60697348D01*
X184275963Y-60783373D01*
X184293359Y-60960000D01*
X184275963Y-61136627D01*
X184275962Y-61136630D01*
X184224444Y-61306465D01*
X184140779Y-61462990D01*
X184028185Y-61600185D01*
X183890990Y-61712779D01*
X183734465Y-61796444D01*
X183587963Y-61840884D01*
X183564627Y-61847963D01*
X183432258Y-61861000D01*
X183343742Y-61861000D01*
X183211373Y-61847963D01*
X183188037Y-61840884D01*
X183041535Y-61796444D01*
X182885010Y-61712779D01*
X182747815Y-61600185D01*
X182635221Y-61462990D01*
X182551556Y-61306465D01*
X182500038Y-61136630D01*
X182500037Y-61136627D01*
X182482641Y-60960000D01*
X182500037Y-60783373D01*
X182526132Y-60697348D01*
X182551556Y-60613535D01*
X182635221Y-60457010D01*
X182747815Y-60319815D01*
X182885010Y-60207221D01*
X183041535Y-60123556D01*
X183211370Y-60072038D01*
X183211373Y-60072037D01*
X183343742Y-60059000D01*
X183432258Y-60059000D01*
X183564627Y-60072037D01*
X183564627Y-60072037D01*
G37*
G36*
X229284627Y-60072037D02*
G01*
X229284630Y-60072038D01*
X229454465Y-60123556D01*
X229610990Y-60207221D01*
X229748185Y-60319815D01*
X229860779Y-60457010D01*
X229944444Y-60613535D01*
X229969868Y-60697348D01*
X229995963Y-60783373D01*
X230013359Y-60960000D01*
X229995963Y-61136627D01*
X229995962Y-61136630D01*
X229944444Y-61306465D01*
X229860779Y-61462990D01*
X229748185Y-61600185D01*
X229610990Y-61712779D01*
X229454465Y-61796444D01*
X229307963Y-61840884D01*
X229284627Y-61847963D01*
X229152258Y-61861000D01*
X229063742Y-61861000D01*
X228931373Y-61847963D01*
X228908037Y-61840884D01*
X228761535Y-61796444D01*
X228605010Y-61712779D01*
X228467815Y-61600185D01*
X228355221Y-61462990D01*
X228271556Y-61306465D01*
X228220038Y-61136630D01*
X228220037Y-61136627D01*
X228202641Y-60960000D01*
X228220037Y-60783373D01*
X228246132Y-60697348D01*
X228271556Y-60613535D01*
X228355221Y-60457010D01*
X228467815Y-60319815D01*
X228605010Y-60207221D01*
X228761535Y-60123556D01*
X228931370Y-60072038D01*
X228931373Y-60072037D01*
X229063742Y-60059000D01*
X229152258Y-60059000D01*
X229284627Y-60072037D01*
X229284627Y-60072037D01*
G37*
G36*
X214567378Y-59746591D02*
G01*
X214615477Y-59761181D01*
X214659810Y-59784878D01*
X214699638Y-59817564D01*
X214707731Y-59825657D01*
X214707737Y-59825662D01*
X215088514Y-60206439D01*
X215088519Y-60206445D01*
X215096612Y-60214538D01*
X215129298Y-60254366D01*
X215152995Y-60298699D01*
X215167585Y-60346798D01*
X215172513Y-60396828D01*
X215167585Y-60446858D01*
X215152995Y-60494957D01*
X215129298Y-60539290D01*
X215096612Y-60579118D01*
X215088519Y-60587211D01*
X215088514Y-60587217D01*
X214407217Y-61268514D01*
X214407211Y-61268519D01*
X214399118Y-61276612D01*
X214359290Y-61309298D01*
X214314957Y-61332995D01*
X214266858Y-61347585D01*
X214216828Y-61352513D01*
X214166798Y-61347585D01*
X214118699Y-61332995D01*
X214074366Y-61309298D01*
X214034538Y-61276612D01*
X214026445Y-61268519D01*
X214026439Y-61268514D01*
X213645662Y-60887737D01*
X213645657Y-60887731D01*
X213637564Y-60879638D01*
X213604878Y-60839810D01*
X213581181Y-60795477D01*
X213566591Y-60747378D01*
X213561663Y-60697348D01*
X213566591Y-60647318D01*
X213581181Y-60599219D01*
X213604878Y-60554886D01*
X213637564Y-60515058D01*
X213645657Y-60506965D01*
X213645662Y-60506959D01*
X214326959Y-59825662D01*
X214326965Y-59825657D01*
X214335058Y-59817564D01*
X214374886Y-59784878D01*
X214419219Y-59761181D01*
X214467318Y-59746591D01*
X214517348Y-59741663D01*
X214567378Y-59746591D01*
X214567378Y-59746591D01*
G37*
G36*
X229284627Y-57532037D02*
G01*
X229284630Y-57532038D01*
X229454465Y-57583556D01*
X229610990Y-57667221D01*
X229748185Y-57779815D01*
X229860779Y-57917010D01*
X229944444Y-58073535D01*
X229990070Y-58223947D01*
X229995963Y-58243373D01*
X230013359Y-58420000D01*
X229995963Y-58596627D01*
X229995962Y-58596630D01*
X229944444Y-58766465D01*
X229860779Y-58922990D01*
X229748185Y-59060185D01*
X229610990Y-59172779D01*
X229454465Y-59256444D01*
X229304053Y-59302070D01*
X229284627Y-59307963D01*
X229152258Y-59321000D01*
X229063742Y-59321000D01*
X228931373Y-59307963D01*
X228911947Y-59302070D01*
X228761535Y-59256444D01*
X228605010Y-59172779D01*
X228467815Y-59060185D01*
X228355221Y-58922990D01*
X228271556Y-58766465D01*
X228220038Y-58596630D01*
X228220037Y-58596627D01*
X228202641Y-58420000D01*
X228220037Y-58243373D01*
X228225930Y-58223947D01*
X228271556Y-58073535D01*
X228355221Y-57917010D01*
X228467815Y-57779815D01*
X228605010Y-57667221D01*
X228761535Y-57583556D01*
X228931370Y-57532038D01*
X228931373Y-57532037D01*
X229063742Y-57519000D01*
X229152258Y-57519000D01*
X229284627Y-57532037D01*
X229284627Y-57532037D01*
G37*
G36*
X226744627Y-57532037D02*
G01*
X226744630Y-57532038D01*
X226914465Y-57583556D01*
X227070990Y-57667221D01*
X227208185Y-57779815D01*
X227320779Y-57917010D01*
X227404444Y-58073535D01*
X227450070Y-58223947D01*
X227455963Y-58243373D01*
X227473359Y-58420000D01*
X227455963Y-58596627D01*
X227455962Y-58596630D01*
X227404444Y-58766465D01*
X227320779Y-58922990D01*
X227208185Y-59060185D01*
X227070990Y-59172779D01*
X226914465Y-59256444D01*
X226764053Y-59302070D01*
X226744627Y-59307963D01*
X226612258Y-59321000D01*
X226523742Y-59321000D01*
X226391373Y-59307963D01*
X226371947Y-59302070D01*
X226221535Y-59256444D01*
X226065010Y-59172779D01*
X225927815Y-59060185D01*
X225815221Y-58922990D01*
X225731556Y-58766465D01*
X225680038Y-58596630D01*
X225680037Y-58596627D01*
X225662641Y-58420000D01*
X225680037Y-58243373D01*
X225685930Y-58223947D01*
X225731556Y-58073535D01*
X225815221Y-57917010D01*
X225927815Y-57779815D01*
X226065010Y-57667221D01*
X226221535Y-57583556D01*
X226391370Y-57532038D01*
X226391373Y-57532037D01*
X226523742Y-57519000D01*
X226612258Y-57519000D01*
X226744627Y-57532037D01*
X226744627Y-57532037D01*
G37*
G36*
X184289000Y-59321000D02*
G01*
X182487000Y-59321000D01*
X182487000Y-57519000D01*
X184289000Y-57519000D01*
X184289000Y-59321000D01*
X184289000Y-59321000D01*
G37*
G36*
X186104627Y-57532037D02*
G01*
X186104630Y-57532038D01*
X186274465Y-57583556D01*
X186430990Y-57667221D01*
X186568185Y-57779815D01*
X186680779Y-57917010D01*
X186764444Y-58073535D01*
X186810070Y-58223947D01*
X186815963Y-58243373D01*
X186833359Y-58420000D01*
X186815963Y-58596627D01*
X186815962Y-58596630D01*
X186764444Y-58766465D01*
X186680779Y-58922990D01*
X186568185Y-59060185D01*
X186430990Y-59172779D01*
X186274465Y-59256444D01*
X186124053Y-59302070D01*
X186104627Y-59307963D01*
X185972258Y-59321000D01*
X185883742Y-59321000D01*
X185751373Y-59307963D01*
X185731947Y-59302070D01*
X185581535Y-59256444D01*
X185425010Y-59172779D01*
X185287815Y-59060185D01*
X185175221Y-58922990D01*
X185091556Y-58766465D01*
X185040038Y-58596630D01*
X185040037Y-58596627D01*
X185022641Y-58420000D01*
X185040037Y-58243373D01*
X185045930Y-58223947D01*
X185091556Y-58073535D01*
X185175221Y-57917010D01*
X185287815Y-57779815D01*
X185425010Y-57667221D01*
X185581535Y-57583556D01*
X185751370Y-57532038D01*
X185751373Y-57532037D01*
X185883742Y-57519000D01*
X185972258Y-57519000D01*
X186104627Y-57532037D01*
X186104627Y-57532037D01*
G37*
G36*
X229601000Y-54471000D02*
G01*
X227599000Y-54471000D01*
X227599000Y-52769000D01*
X229601000Y-52769000D01*
X229601000Y-54471000D01*
X229601000Y-54471000D01*
G37*
G36*
X185151000Y-54471000D02*
G01*
X183149000Y-54471000D01*
X183149000Y-52769000D01*
X185151000Y-52769000D01*
X185151000Y-54471000D01*
X185151000Y-54471000D01*
G37*
G36*
X191184627Y-52452037D02*
G01*
X191184630Y-52452038D01*
X191354465Y-52503556D01*
X191510990Y-52587221D01*
X191648185Y-52699815D01*
X191760779Y-52837010D01*
X191844444Y-52993535D01*
X191890070Y-53143947D01*
X191895963Y-53163373D01*
X191913359Y-53340000D01*
X191895963Y-53516627D01*
X191895962Y-53516630D01*
X191844444Y-53686465D01*
X191760779Y-53842990D01*
X191648185Y-53980185D01*
X191510990Y-54092779D01*
X191354465Y-54176444D01*
X191204053Y-54222070D01*
X191184627Y-54227963D01*
X191052258Y-54241000D01*
X190963742Y-54241000D01*
X190831373Y-54227963D01*
X190811947Y-54222070D01*
X190661535Y-54176444D01*
X190505010Y-54092779D01*
X190367815Y-53980185D01*
X190255221Y-53842990D01*
X190171556Y-53686465D01*
X190120038Y-53516630D01*
X190120037Y-53516627D01*
X190102641Y-53340000D01*
X190120037Y-53163373D01*
X190125930Y-53143947D01*
X190171556Y-52993535D01*
X190255221Y-52837010D01*
X190367815Y-52699815D01*
X190505010Y-52587221D01*
X190661535Y-52503556D01*
X190831370Y-52452038D01*
X190831373Y-52452037D01*
X190963742Y-52439000D01*
X191052258Y-52439000D01*
X191184627Y-52452037D01*
X191184627Y-52452037D01*
G37*
G36*
X208964627Y-52452037D02*
G01*
X208964630Y-52452038D01*
X209134465Y-52503556D01*
X209290990Y-52587221D01*
X209428185Y-52699815D01*
X209540779Y-52837010D01*
X209624444Y-52993535D01*
X209670070Y-53143947D01*
X209675963Y-53163373D01*
X209693359Y-53340000D01*
X209675963Y-53516627D01*
X209675962Y-53516630D01*
X209624444Y-53686465D01*
X209540779Y-53842990D01*
X209428185Y-53980185D01*
X209290990Y-54092779D01*
X209134465Y-54176444D01*
X208984053Y-54222070D01*
X208964627Y-54227963D01*
X208832258Y-54241000D01*
X208743742Y-54241000D01*
X208611373Y-54227963D01*
X208591947Y-54222070D01*
X208441535Y-54176444D01*
X208285010Y-54092779D01*
X208147815Y-53980185D01*
X208035221Y-53842990D01*
X207951556Y-53686465D01*
X207900038Y-53516630D01*
X207900037Y-53516627D01*
X207882641Y-53340000D01*
X207900037Y-53163373D01*
X207905930Y-53143947D01*
X207951556Y-52993535D01*
X208035221Y-52837010D01*
X208147815Y-52699815D01*
X208285010Y-52587221D01*
X208441535Y-52503556D01*
X208611370Y-52452038D01*
X208611373Y-52452037D01*
X208743742Y-52439000D01*
X208832258Y-52439000D01*
X208964627Y-52452037D01*
X208964627Y-52452037D01*
G37*
G36*
X221664627Y-52452037D02*
G01*
X221664630Y-52452038D01*
X221834465Y-52503556D01*
X221990990Y-52587221D01*
X222128185Y-52699815D01*
X222240779Y-52837010D01*
X222324444Y-52993535D01*
X222370070Y-53143947D01*
X222375963Y-53163373D01*
X222393359Y-53340000D01*
X222375963Y-53516627D01*
X222375962Y-53516630D01*
X222324444Y-53686465D01*
X222240779Y-53842990D01*
X222128185Y-53980185D01*
X221990990Y-54092779D01*
X221834465Y-54176444D01*
X221684053Y-54222070D01*
X221664627Y-54227963D01*
X221532258Y-54241000D01*
X221443742Y-54241000D01*
X221311373Y-54227963D01*
X221291947Y-54222070D01*
X221141535Y-54176444D01*
X220985010Y-54092779D01*
X220847815Y-53980185D01*
X220735221Y-53842990D01*
X220651556Y-53686465D01*
X220600038Y-53516630D01*
X220600037Y-53516627D01*
X220582641Y-53340000D01*
X220600037Y-53163373D01*
X220605930Y-53143947D01*
X220651556Y-52993535D01*
X220735221Y-52837010D01*
X220847815Y-52699815D01*
X220985010Y-52587221D01*
X221141535Y-52503556D01*
X221311370Y-52452038D01*
X221311373Y-52452037D01*
X221443742Y-52439000D01*
X221532258Y-52439000D01*
X221664627Y-52452037D01*
X221664627Y-52452037D01*
G37*
G36*
X198804627Y-52452037D02*
G01*
X198804630Y-52452038D01*
X198974465Y-52503556D01*
X199130990Y-52587221D01*
X199268185Y-52699815D01*
X199380779Y-52837010D01*
X199464444Y-52993535D01*
X199510070Y-53143947D01*
X199515963Y-53163373D01*
X199533359Y-53340000D01*
X199515963Y-53516627D01*
X199515962Y-53516630D01*
X199464444Y-53686465D01*
X199380779Y-53842990D01*
X199268185Y-53980185D01*
X199130990Y-54092779D01*
X198974465Y-54176444D01*
X198824053Y-54222070D01*
X198804627Y-54227963D01*
X198672258Y-54241000D01*
X198583742Y-54241000D01*
X198451373Y-54227963D01*
X198431947Y-54222070D01*
X198281535Y-54176444D01*
X198125010Y-54092779D01*
X197987815Y-53980185D01*
X197875221Y-53842990D01*
X197791556Y-53686465D01*
X197740038Y-53516630D01*
X197740037Y-53516627D01*
X197722641Y-53340000D01*
X197740037Y-53163373D01*
X197745930Y-53143947D01*
X197791556Y-52993535D01*
X197875221Y-52837010D01*
X197987815Y-52699815D01*
X198125010Y-52587221D01*
X198281535Y-52503556D01*
X198451370Y-52452038D01*
X198451373Y-52452037D01*
X198583742Y-52439000D01*
X198672258Y-52439000D01*
X198804627Y-52452037D01*
X198804627Y-52452037D01*
G37*
G36*
X201344627Y-52452037D02*
G01*
X201344630Y-52452038D01*
X201514465Y-52503556D01*
X201670990Y-52587221D01*
X201808185Y-52699815D01*
X201920779Y-52837010D01*
X202004444Y-52993535D01*
X202050070Y-53143947D01*
X202055963Y-53163373D01*
X202073359Y-53340000D01*
X202055963Y-53516627D01*
X202055962Y-53516630D01*
X202004444Y-53686465D01*
X201920779Y-53842990D01*
X201808185Y-53980185D01*
X201670990Y-54092779D01*
X201514465Y-54176444D01*
X201364053Y-54222070D01*
X201344627Y-54227963D01*
X201212258Y-54241000D01*
X201123742Y-54241000D01*
X200991373Y-54227963D01*
X200971947Y-54222070D01*
X200821535Y-54176444D01*
X200665010Y-54092779D01*
X200527815Y-53980185D01*
X200415221Y-53842990D01*
X200331556Y-53686465D01*
X200280038Y-53516630D01*
X200280037Y-53516627D01*
X200262641Y-53340000D01*
X200280037Y-53163373D01*
X200285930Y-53143947D01*
X200331556Y-52993535D01*
X200415221Y-52837010D01*
X200527815Y-52699815D01*
X200665010Y-52587221D01*
X200821535Y-52503556D01*
X200991370Y-52452038D01*
X200991373Y-52452037D01*
X201123742Y-52439000D01*
X201212258Y-52439000D01*
X201344627Y-52452037D01*
X201344627Y-52452037D01*
G37*
G36*
X203884627Y-52452037D02*
G01*
X203884630Y-52452038D01*
X204054465Y-52503556D01*
X204210990Y-52587221D01*
X204348185Y-52699815D01*
X204460779Y-52837010D01*
X204544444Y-52993535D01*
X204590070Y-53143947D01*
X204595963Y-53163373D01*
X204613359Y-53340000D01*
X204595963Y-53516627D01*
X204595962Y-53516630D01*
X204544444Y-53686465D01*
X204460779Y-53842990D01*
X204348185Y-53980185D01*
X204210990Y-54092779D01*
X204054465Y-54176444D01*
X203904053Y-54222070D01*
X203884627Y-54227963D01*
X203752258Y-54241000D01*
X203663742Y-54241000D01*
X203531373Y-54227963D01*
X203511947Y-54222070D01*
X203361535Y-54176444D01*
X203205010Y-54092779D01*
X203067815Y-53980185D01*
X202955221Y-53842990D01*
X202871556Y-53686465D01*
X202820038Y-53516630D01*
X202820037Y-53516627D01*
X202802641Y-53340000D01*
X202820037Y-53163373D01*
X202825930Y-53143947D01*
X202871556Y-52993535D01*
X202955221Y-52837010D01*
X203067815Y-52699815D01*
X203205010Y-52587221D01*
X203361535Y-52503556D01*
X203531370Y-52452038D01*
X203531373Y-52452037D01*
X203663742Y-52439000D01*
X203752258Y-52439000D01*
X203884627Y-52452037D01*
X203884627Y-52452037D01*
G37*
G36*
X193724627Y-52452037D02*
G01*
X193724630Y-52452038D01*
X193894465Y-52503556D01*
X194050990Y-52587221D01*
X194188185Y-52699815D01*
X194300779Y-52837010D01*
X194384444Y-52993535D01*
X194430070Y-53143947D01*
X194435963Y-53163373D01*
X194453359Y-53340000D01*
X194435963Y-53516627D01*
X194435962Y-53516630D01*
X194384444Y-53686465D01*
X194300779Y-53842990D01*
X194188185Y-53980185D01*
X194050990Y-54092779D01*
X193894465Y-54176444D01*
X193744053Y-54222070D01*
X193724627Y-54227963D01*
X193592258Y-54241000D01*
X193503742Y-54241000D01*
X193371373Y-54227963D01*
X193351947Y-54222070D01*
X193201535Y-54176444D01*
X193045010Y-54092779D01*
X192907815Y-53980185D01*
X192795221Y-53842990D01*
X192711556Y-53686465D01*
X192660038Y-53516630D01*
X192660037Y-53516627D01*
X192642641Y-53340000D01*
X192660037Y-53163373D01*
X192665930Y-53143947D01*
X192711556Y-52993535D01*
X192795221Y-52837010D01*
X192907815Y-52699815D01*
X193045010Y-52587221D01*
X193201535Y-52503556D01*
X193371370Y-52452038D01*
X193371373Y-52452037D01*
X193503742Y-52439000D01*
X193592258Y-52439000D01*
X193724627Y-52452037D01*
X193724627Y-52452037D01*
G37*
G36*
X211504627Y-52452037D02*
G01*
X211504630Y-52452038D01*
X211674465Y-52503556D01*
X211830990Y-52587221D01*
X211968185Y-52699815D01*
X212080779Y-52837010D01*
X212164444Y-52993535D01*
X212210070Y-53143947D01*
X212215963Y-53163373D01*
X212233359Y-53340000D01*
X212215963Y-53516627D01*
X212215962Y-53516630D01*
X212164444Y-53686465D01*
X212080779Y-53842990D01*
X211968185Y-53980185D01*
X211830990Y-54092779D01*
X211674465Y-54176444D01*
X211524053Y-54222070D01*
X211504627Y-54227963D01*
X211372258Y-54241000D01*
X211283742Y-54241000D01*
X211151373Y-54227963D01*
X211131947Y-54222070D01*
X210981535Y-54176444D01*
X210825010Y-54092779D01*
X210687815Y-53980185D01*
X210575221Y-53842990D01*
X210491556Y-53686465D01*
X210440038Y-53516630D01*
X210440037Y-53516627D01*
X210422641Y-53340000D01*
X210440037Y-53163373D01*
X210445930Y-53143947D01*
X210491556Y-52993535D01*
X210575221Y-52837010D01*
X210687815Y-52699815D01*
X210825010Y-52587221D01*
X210981535Y-52503556D01*
X211151370Y-52452038D01*
X211151373Y-52452037D01*
X211283742Y-52439000D01*
X211372258Y-52439000D01*
X211504627Y-52452037D01*
X211504627Y-52452037D01*
G37*
G36*
X206424627Y-52452037D02*
G01*
X206424630Y-52452038D01*
X206594465Y-52503556D01*
X206750990Y-52587221D01*
X206888185Y-52699815D01*
X207000779Y-52837010D01*
X207084444Y-52993535D01*
X207130070Y-53143947D01*
X207135963Y-53163373D01*
X207153359Y-53340000D01*
X207135963Y-53516627D01*
X207135962Y-53516630D01*
X207084444Y-53686465D01*
X207000779Y-53842990D01*
X206888185Y-53980185D01*
X206750990Y-54092779D01*
X206594465Y-54176444D01*
X206444053Y-54222070D01*
X206424627Y-54227963D01*
X206292258Y-54241000D01*
X206203742Y-54241000D01*
X206071373Y-54227963D01*
X206051947Y-54222070D01*
X205901535Y-54176444D01*
X205745010Y-54092779D01*
X205607815Y-53980185D01*
X205495221Y-53842990D01*
X205411556Y-53686465D01*
X205360038Y-53516630D01*
X205360037Y-53516627D01*
X205342641Y-53340000D01*
X205360037Y-53163373D01*
X205365930Y-53143947D01*
X205411556Y-52993535D01*
X205495221Y-52837010D01*
X205607815Y-52699815D01*
X205745010Y-52587221D01*
X205901535Y-52503556D01*
X206071370Y-52452038D01*
X206071373Y-52452037D01*
X206203742Y-52439000D01*
X206292258Y-52439000D01*
X206424627Y-52452037D01*
X206424627Y-52452037D01*
G37*
G36*
X196264627Y-52452037D02*
G01*
X196264630Y-52452038D01*
X196434465Y-52503556D01*
X196590990Y-52587221D01*
X196728185Y-52699815D01*
X196840779Y-52837010D01*
X196924444Y-52993535D01*
X196970070Y-53143947D01*
X196975963Y-53163373D01*
X196993359Y-53340000D01*
X196975963Y-53516627D01*
X196975962Y-53516630D01*
X196924444Y-53686465D01*
X196840779Y-53842990D01*
X196728185Y-53980185D01*
X196590990Y-54092779D01*
X196434465Y-54176444D01*
X196284053Y-54222070D01*
X196264627Y-54227963D01*
X196132258Y-54241000D01*
X196043742Y-54241000D01*
X195911373Y-54227963D01*
X195891947Y-54222070D01*
X195741535Y-54176444D01*
X195585010Y-54092779D01*
X195447815Y-53980185D01*
X195335221Y-53842990D01*
X195251556Y-53686465D01*
X195200038Y-53516630D01*
X195200037Y-53516627D01*
X195182641Y-53340000D01*
X195200037Y-53163373D01*
X195205930Y-53143947D01*
X195251556Y-52993535D01*
X195335221Y-52837010D01*
X195447815Y-52699815D01*
X195585010Y-52587221D01*
X195741535Y-52503556D01*
X195911370Y-52452038D01*
X195911373Y-52452037D01*
X196043742Y-52439000D01*
X196132258Y-52439000D01*
X196264627Y-52452037D01*
X196264627Y-52452037D01*
G37*
G36*
X219124627Y-52452037D02*
G01*
X219124630Y-52452038D01*
X219294465Y-52503556D01*
X219450990Y-52587221D01*
X219588185Y-52699815D01*
X219700779Y-52837010D01*
X219784444Y-52993535D01*
X219830070Y-53143947D01*
X219835963Y-53163373D01*
X219853359Y-53340000D01*
X219835963Y-53516627D01*
X219835962Y-53516630D01*
X219784444Y-53686465D01*
X219700779Y-53842990D01*
X219588185Y-53980185D01*
X219450990Y-54092779D01*
X219294465Y-54176444D01*
X219144053Y-54222070D01*
X219124627Y-54227963D01*
X218992258Y-54241000D01*
X218903742Y-54241000D01*
X218771373Y-54227963D01*
X218751947Y-54222070D01*
X218601535Y-54176444D01*
X218445010Y-54092779D01*
X218307815Y-53980185D01*
X218195221Y-53842990D01*
X218111556Y-53686465D01*
X218060038Y-53516630D01*
X218060037Y-53516627D01*
X218042641Y-53340000D01*
X218060037Y-53163373D01*
X218065930Y-53143947D01*
X218111556Y-52993535D01*
X218195221Y-52837010D01*
X218307815Y-52699815D01*
X218445010Y-52587221D01*
X218601535Y-52503556D01*
X218771370Y-52452038D01*
X218771373Y-52452037D01*
X218903742Y-52439000D01*
X218992258Y-52439000D01*
X219124627Y-52452037D01*
X219124627Y-52452037D01*
G37*
G36*
X214044627Y-52452037D02*
G01*
X214044630Y-52452038D01*
X214214465Y-52503556D01*
X214370990Y-52587221D01*
X214508185Y-52699815D01*
X214620779Y-52837010D01*
X214704444Y-52993535D01*
X214750070Y-53143947D01*
X214755963Y-53163373D01*
X214773359Y-53340000D01*
X214755963Y-53516627D01*
X214755962Y-53516630D01*
X214704444Y-53686465D01*
X214620779Y-53842990D01*
X214508185Y-53980185D01*
X214370990Y-54092779D01*
X214214465Y-54176444D01*
X214064053Y-54222070D01*
X214044627Y-54227963D01*
X213912258Y-54241000D01*
X213823742Y-54241000D01*
X213691373Y-54227963D01*
X213671947Y-54222070D01*
X213521535Y-54176444D01*
X213365010Y-54092779D01*
X213227815Y-53980185D01*
X213115221Y-53842990D01*
X213031556Y-53686465D01*
X212980038Y-53516630D01*
X212980037Y-53516627D01*
X212962641Y-53340000D01*
X212980037Y-53163373D01*
X212985930Y-53143947D01*
X213031556Y-52993535D01*
X213115221Y-52837010D01*
X213227815Y-52699815D01*
X213365010Y-52587221D01*
X213521535Y-52503556D01*
X213691370Y-52452038D01*
X213691373Y-52452037D01*
X213823742Y-52439000D01*
X213912258Y-52439000D01*
X214044627Y-52452037D01*
X214044627Y-52452037D01*
G37*
G36*
X216584627Y-52452037D02*
G01*
X216584630Y-52452038D01*
X216754465Y-52503556D01*
X216910990Y-52587221D01*
X217048185Y-52699815D01*
X217160779Y-52837010D01*
X217244444Y-52993535D01*
X217290070Y-53143947D01*
X217295963Y-53163373D01*
X217313359Y-53340000D01*
X217295963Y-53516627D01*
X217295962Y-53516630D01*
X217244444Y-53686465D01*
X217160779Y-53842990D01*
X217048185Y-53980185D01*
X216910990Y-54092779D01*
X216754465Y-54176444D01*
X216604053Y-54222070D01*
X216584627Y-54227963D01*
X216452258Y-54241000D01*
X216363742Y-54241000D01*
X216231373Y-54227963D01*
X216211947Y-54222070D01*
X216061535Y-54176444D01*
X215905010Y-54092779D01*
X215767815Y-53980185D01*
X215655221Y-53842990D01*
X215571556Y-53686465D01*
X215520038Y-53516630D01*
X215520037Y-53516627D01*
X215502641Y-53340000D01*
X215520037Y-53163373D01*
X215525930Y-53143947D01*
X215571556Y-52993535D01*
X215655221Y-52837010D01*
X215767815Y-52699815D01*
X215905010Y-52587221D01*
X216061535Y-52503556D01*
X216231370Y-52452038D01*
X216231373Y-52452037D01*
X216363742Y-52439000D01*
X216452258Y-52439000D01*
X216584627Y-52452037D01*
X216584627Y-52452037D01*
G37*
G36*
X208964627Y-49912037D02*
G01*
X208964630Y-49912038D01*
X209134465Y-49963556D01*
X209290990Y-50047221D01*
X209428185Y-50159815D01*
X209540779Y-50297010D01*
X209624444Y-50453535D01*
X209670070Y-50603947D01*
X209675963Y-50623373D01*
X209693359Y-50800000D01*
X209675963Y-50976627D01*
X209675962Y-50976630D01*
X209624444Y-51146465D01*
X209540779Y-51302990D01*
X209428185Y-51440185D01*
X209290990Y-51552779D01*
X209134465Y-51636444D01*
X208984053Y-51682070D01*
X208964627Y-51687963D01*
X208832258Y-51701000D01*
X208743742Y-51701000D01*
X208611373Y-51687963D01*
X208591947Y-51682070D01*
X208441535Y-51636444D01*
X208285010Y-51552779D01*
X208147815Y-51440185D01*
X208035221Y-51302990D01*
X207951556Y-51146465D01*
X207900038Y-50976630D01*
X207900037Y-50976627D01*
X207882641Y-50800000D01*
X207900037Y-50623373D01*
X207905930Y-50603947D01*
X207951556Y-50453535D01*
X208035221Y-50297010D01*
X208147815Y-50159815D01*
X208285010Y-50047221D01*
X208441535Y-49963556D01*
X208611370Y-49912038D01*
X208611373Y-49912037D01*
X208743742Y-49899000D01*
X208832258Y-49899000D01*
X208964627Y-49912037D01*
X208964627Y-49912037D01*
G37*
G36*
X196264627Y-49912037D02*
G01*
X196264630Y-49912038D01*
X196434465Y-49963556D01*
X196590990Y-50047221D01*
X196728185Y-50159815D01*
X196840779Y-50297010D01*
X196924444Y-50453535D01*
X196970070Y-50603947D01*
X196975963Y-50623373D01*
X196993359Y-50800000D01*
X196975963Y-50976627D01*
X196975962Y-50976630D01*
X196924444Y-51146465D01*
X196840779Y-51302990D01*
X196728185Y-51440185D01*
X196590990Y-51552779D01*
X196434465Y-51636444D01*
X196284053Y-51682070D01*
X196264627Y-51687963D01*
X196132258Y-51701000D01*
X196043742Y-51701000D01*
X195911373Y-51687963D01*
X195891947Y-51682070D01*
X195741535Y-51636444D01*
X195585010Y-51552779D01*
X195447815Y-51440185D01*
X195335221Y-51302990D01*
X195251556Y-51146465D01*
X195200038Y-50976630D01*
X195200037Y-50976627D01*
X195182641Y-50800000D01*
X195200037Y-50623373D01*
X195205930Y-50603947D01*
X195251556Y-50453535D01*
X195335221Y-50297010D01*
X195447815Y-50159815D01*
X195585010Y-50047221D01*
X195741535Y-49963556D01*
X195911370Y-49912038D01*
X195911373Y-49912037D01*
X196043742Y-49899000D01*
X196132258Y-49899000D01*
X196264627Y-49912037D01*
X196264627Y-49912037D01*
G37*
G36*
X193724627Y-49912037D02*
G01*
X193724630Y-49912038D01*
X193894465Y-49963556D01*
X194050990Y-50047221D01*
X194188185Y-50159815D01*
X194300779Y-50297010D01*
X194384444Y-50453535D01*
X194430070Y-50603947D01*
X194435963Y-50623373D01*
X194453359Y-50800000D01*
X194435963Y-50976627D01*
X194435962Y-50976630D01*
X194384444Y-51146465D01*
X194300779Y-51302990D01*
X194188185Y-51440185D01*
X194050990Y-51552779D01*
X193894465Y-51636444D01*
X193744053Y-51682070D01*
X193724627Y-51687963D01*
X193592258Y-51701000D01*
X193503742Y-51701000D01*
X193371373Y-51687963D01*
X193351947Y-51682070D01*
X193201535Y-51636444D01*
X193045010Y-51552779D01*
X192907815Y-51440185D01*
X192795221Y-51302990D01*
X192711556Y-51146465D01*
X192660038Y-50976630D01*
X192660037Y-50976627D01*
X192642641Y-50800000D01*
X192660037Y-50623373D01*
X192665930Y-50603947D01*
X192711556Y-50453535D01*
X192795221Y-50297010D01*
X192907815Y-50159815D01*
X193045010Y-50047221D01*
X193201535Y-49963556D01*
X193371370Y-49912038D01*
X193371373Y-49912037D01*
X193503742Y-49899000D01*
X193592258Y-49899000D01*
X193724627Y-49912037D01*
X193724627Y-49912037D01*
G37*
G36*
X191184627Y-49912037D02*
G01*
X191184630Y-49912038D01*
X191354465Y-49963556D01*
X191510990Y-50047221D01*
X191648185Y-50159815D01*
X191760779Y-50297010D01*
X191844444Y-50453535D01*
X191890070Y-50603947D01*
X191895963Y-50623373D01*
X191913359Y-50800000D01*
X191895963Y-50976627D01*
X191895962Y-50976630D01*
X191844444Y-51146465D01*
X191760779Y-51302990D01*
X191648185Y-51440185D01*
X191510990Y-51552779D01*
X191354465Y-51636444D01*
X191204053Y-51682070D01*
X191184627Y-51687963D01*
X191052258Y-51701000D01*
X190963742Y-51701000D01*
X190831373Y-51687963D01*
X190811947Y-51682070D01*
X190661535Y-51636444D01*
X190505010Y-51552779D01*
X190367815Y-51440185D01*
X190255221Y-51302990D01*
X190171556Y-51146465D01*
X190120038Y-50976630D01*
X190120037Y-50976627D01*
X190102641Y-50800000D01*
X190120037Y-50623373D01*
X190125930Y-50603947D01*
X190171556Y-50453535D01*
X190255221Y-50297010D01*
X190367815Y-50159815D01*
X190505010Y-50047221D01*
X190661535Y-49963556D01*
X190831370Y-49912038D01*
X190831373Y-49912037D01*
X190963742Y-49899000D01*
X191052258Y-49899000D01*
X191184627Y-49912037D01*
X191184627Y-49912037D01*
G37*
G36*
X222389000Y-51701000D02*
G01*
X220587000Y-51701000D01*
X220587000Y-49899000D01*
X222389000Y-49899000D01*
X222389000Y-51701000D01*
X222389000Y-51701000D01*
G37*
G36*
X201344627Y-49912037D02*
G01*
X201344630Y-49912038D01*
X201514465Y-49963556D01*
X201670990Y-50047221D01*
X201808185Y-50159815D01*
X201920779Y-50297010D01*
X202004444Y-50453535D01*
X202050070Y-50603947D01*
X202055963Y-50623373D01*
X202073359Y-50800000D01*
X202055963Y-50976627D01*
X202055962Y-50976630D01*
X202004444Y-51146465D01*
X201920779Y-51302990D01*
X201808185Y-51440185D01*
X201670990Y-51552779D01*
X201514465Y-51636444D01*
X201364053Y-51682070D01*
X201344627Y-51687963D01*
X201212258Y-51701000D01*
X201123742Y-51701000D01*
X200991373Y-51687963D01*
X200971947Y-51682070D01*
X200821535Y-51636444D01*
X200665010Y-51552779D01*
X200527815Y-51440185D01*
X200415221Y-51302990D01*
X200331556Y-51146465D01*
X200280038Y-50976630D01*
X200280037Y-50976627D01*
X200262641Y-50800000D01*
X200280037Y-50623373D01*
X200285930Y-50603947D01*
X200331556Y-50453535D01*
X200415221Y-50297010D01*
X200527815Y-50159815D01*
X200665010Y-50047221D01*
X200821535Y-49963556D01*
X200991370Y-49912038D01*
X200991373Y-49912037D01*
X201123742Y-49899000D01*
X201212258Y-49899000D01*
X201344627Y-49912037D01*
X201344627Y-49912037D01*
G37*
G36*
X203884627Y-49912037D02*
G01*
X203884630Y-49912038D01*
X204054465Y-49963556D01*
X204210990Y-50047221D01*
X204348185Y-50159815D01*
X204460779Y-50297010D01*
X204544444Y-50453535D01*
X204590070Y-50603947D01*
X204595963Y-50623373D01*
X204613359Y-50800000D01*
X204595963Y-50976627D01*
X204595962Y-50976630D01*
X204544444Y-51146465D01*
X204460779Y-51302990D01*
X204348185Y-51440185D01*
X204210990Y-51552779D01*
X204054465Y-51636444D01*
X203904053Y-51682070D01*
X203884627Y-51687963D01*
X203752258Y-51701000D01*
X203663742Y-51701000D01*
X203531373Y-51687963D01*
X203511947Y-51682070D01*
X203361535Y-51636444D01*
X203205010Y-51552779D01*
X203067815Y-51440185D01*
X202955221Y-51302990D01*
X202871556Y-51146465D01*
X202820038Y-50976630D01*
X202820037Y-50976627D01*
X202802641Y-50800000D01*
X202820037Y-50623373D01*
X202825930Y-50603947D01*
X202871556Y-50453535D01*
X202955221Y-50297010D01*
X203067815Y-50159815D01*
X203205010Y-50047221D01*
X203361535Y-49963556D01*
X203531370Y-49912038D01*
X203531373Y-49912037D01*
X203663742Y-49899000D01*
X203752258Y-49899000D01*
X203884627Y-49912037D01*
X203884627Y-49912037D01*
G37*
G36*
X198804627Y-49912037D02*
G01*
X198804630Y-49912038D01*
X198974465Y-49963556D01*
X199130990Y-50047221D01*
X199268185Y-50159815D01*
X199380779Y-50297010D01*
X199464444Y-50453535D01*
X199510070Y-50603947D01*
X199515963Y-50623373D01*
X199533359Y-50800000D01*
X199515963Y-50976627D01*
X199515962Y-50976630D01*
X199464444Y-51146465D01*
X199380779Y-51302990D01*
X199268185Y-51440185D01*
X199130990Y-51552779D01*
X198974465Y-51636444D01*
X198824053Y-51682070D01*
X198804627Y-51687963D01*
X198672258Y-51701000D01*
X198583742Y-51701000D01*
X198451373Y-51687963D01*
X198431947Y-51682070D01*
X198281535Y-51636444D01*
X198125010Y-51552779D01*
X197987815Y-51440185D01*
X197875221Y-51302990D01*
X197791556Y-51146465D01*
X197740038Y-50976630D01*
X197740037Y-50976627D01*
X197722641Y-50800000D01*
X197740037Y-50623373D01*
X197745930Y-50603947D01*
X197791556Y-50453535D01*
X197875221Y-50297010D01*
X197987815Y-50159815D01*
X198125010Y-50047221D01*
X198281535Y-49963556D01*
X198451370Y-49912038D01*
X198451373Y-49912037D01*
X198583742Y-49899000D01*
X198672258Y-49899000D01*
X198804627Y-49912037D01*
X198804627Y-49912037D01*
G37*
G36*
X206424627Y-49912037D02*
G01*
X206424630Y-49912038D01*
X206594465Y-49963556D01*
X206750990Y-50047221D01*
X206888185Y-50159815D01*
X207000779Y-50297010D01*
X207084444Y-50453535D01*
X207130070Y-50603947D01*
X207135963Y-50623373D01*
X207153359Y-50800000D01*
X207135963Y-50976627D01*
X207135962Y-50976630D01*
X207084444Y-51146465D01*
X207000779Y-51302990D01*
X206888185Y-51440185D01*
X206750990Y-51552779D01*
X206594465Y-51636444D01*
X206444053Y-51682070D01*
X206424627Y-51687963D01*
X206292258Y-51701000D01*
X206203742Y-51701000D01*
X206071373Y-51687963D01*
X206051947Y-51682070D01*
X205901535Y-51636444D01*
X205745010Y-51552779D01*
X205607815Y-51440185D01*
X205495221Y-51302990D01*
X205411556Y-51146465D01*
X205360038Y-50976630D01*
X205360037Y-50976627D01*
X205342641Y-50800000D01*
X205360037Y-50623373D01*
X205365930Y-50603947D01*
X205411556Y-50453535D01*
X205495221Y-50297010D01*
X205607815Y-50159815D01*
X205745010Y-50047221D01*
X205901535Y-49963556D01*
X206071370Y-49912038D01*
X206071373Y-49912037D01*
X206203742Y-49899000D01*
X206292258Y-49899000D01*
X206424627Y-49912037D01*
X206424627Y-49912037D01*
G37*
G36*
X211504627Y-49912037D02*
G01*
X211504630Y-49912038D01*
X211674465Y-49963556D01*
X211830990Y-50047221D01*
X211968185Y-50159815D01*
X212080779Y-50297010D01*
X212164444Y-50453535D01*
X212210070Y-50603947D01*
X212215963Y-50623373D01*
X212233359Y-50800000D01*
X212215963Y-50976627D01*
X212215962Y-50976630D01*
X212164444Y-51146465D01*
X212080779Y-51302990D01*
X211968185Y-51440185D01*
X211830990Y-51552779D01*
X211674465Y-51636444D01*
X211524053Y-51682070D01*
X211504627Y-51687963D01*
X211372258Y-51701000D01*
X211283742Y-51701000D01*
X211151373Y-51687963D01*
X211131947Y-51682070D01*
X210981535Y-51636444D01*
X210825010Y-51552779D01*
X210687815Y-51440185D01*
X210575221Y-51302990D01*
X210491556Y-51146465D01*
X210440038Y-50976630D01*
X210440037Y-50976627D01*
X210422641Y-50800000D01*
X210440037Y-50623373D01*
X210445930Y-50603947D01*
X210491556Y-50453535D01*
X210575221Y-50297010D01*
X210687815Y-50159815D01*
X210825010Y-50047221D01*
X210981535Y-49963556D01*
X211151370Y-49912038D01*
X211151373Y-49912037D01*
X211283742Y-49899000D01*
X211372258Y-49899000D01*
X211504627Y-49912037D01*
X211504627Y-49912037D01*
G37*
G36*
X219124627Y-49912037D02*
G01*
X219124630Y-49912038D01*
X219294465Y-49963556D01*
X219450990Y-50047221D01*
X219588185Y-50159815D01*
X219700779Y-50297010D01*
X219784444Y-50453535D01*
X219830070Y-50603947D01*
X219835963Y-50623373D01*
X219853359Y-50800000D01*
X219835963Y-50976627D01*
X219835962Y-50976630D01*
X219784444Y-51146465D01*
X219700779Y-51302990D01*
X219588185Y-51440185D01*
X219450990Y-51552779D01*
X219294465Y-51636444D01*
X219144053Y-51682070D01*
X219124627Y-51687963D01*
X218992258Y-51701000D01*
X218903742Y-51701000D01*
X218771373Y-51687963D01*
X218751947Y-51682070D01*
X218601535Y-51636444D01*
X218445010Y-51552779D01*
X218307815Y-51440185D01*
X218195221Y-51302990D01*
X218111556Y-51146465D01*
X218060038Y-50976630D01*
X218060037Y-50976627D01*
X218042641Y-50800000D01*
X218060037Y-50623373D01*
X218065930Y-50603947D01*
X218111556Y-50453535D01*
X218195221Y-50297010D01*
X218307815Y-50159815D01*
X218445010Y-50047221D01*
X218601535Y-49963556D01*
X218771370Y-49912038D01*
X218771373Y-49912037D01*
X218903742Y-49899000D01*
X218992258Y-49899000D01*
X219124627Y-49912037D01*
X219124627Y-49912037D01*
G37*
G36*
X214044627Y-49912037D02*
G01*
X214044630Y-49912038D01*
X214214465Y-49963556D01*
X214370990Y-50047221D01*
X214508185Y-50159815D01*
X214620779Y-50297010D01*
X214704444Y-50453535D01*
X214750070Y-50603947D01*
X214755963Y-50623373D01*
X214773359Y-50800000D01*
X214755963Y-50976627D01*
X214755962Y-50976630D01*
X214704444Y-51146465D01*
X214620779Y-51302990D01*
X214508185Y-51440185D01*
X214370990Y-51552779D01*
X214214465Y-51636444D01*
X214064053Y-51682070D01*
X214044627Y-51687963D01*
X213912258Y-51701000D01*
X213823742Y-51701000D01*
X213691373Y-51687963D01*
X213671947Y-51682070D01*
X213521535Y-51636444D01*
X213365010Y-51552779D01*
X213227815Y-51440185D01*
X213115221Y-51302990D01*
X213031556Y-51146465D01*
X212980038Y-50976630D01*
X212980037Y-50976627D01*
X212962641Y-50800000D01*
X212980037Y-50623373D01*
X212985930Y-50603947D01*
X213031556Y-50453535D01*
X213115221Y-50297010D01*
X213227815Y-50159815D01*
X213365010Y-50047221D01*
X213521535Y-49963556D01*
X213691370Y-49912038D01*
X213691373Y-49912037D01*
X213823742Y-49899000D01*
X213912258Y-49899000D01*
X214044627Y-49912037D01*
X214044627Y-49912037D01*
G37*
G36*
X216584627Y-49912037D02*
G01*
X216584630Y-49912038D01*
X216754465Y-49963556D01*
X216910990Y-50047221D01*
X217048185Y-50159815D01*
X217160779Y-50297010D01*
X217244444Y-50453535D01*
X217290070Y-50603947D01*
X217295963Y-50623373D01*
X217313359Y-50800000D01*
X217295963Y-50976627D01*
X217295962Y-50976630D01*
X217244444Y-51146465D01*
X217160779Y-51302990D01*
X217048185Y-51440185D01*
X216910990Y-51552779D01*
X216754465Y-51636444D01*
X216604053Y-51682070D01*
X216584627Y-51687963D01*
X216452258Y-51701000D01*
X216363742Y-51701000D01*
X216231373Y-51687963D01*
X216211947Y-51682070D01*
X216061535Y-51636444D01*
X215905010Y-51552779D01*
X215767815Y-51440185D01*
X215655221Y-51302990D01*
X215571556Y-51146465D01*
X215520038Y-50976630D01*
X215520037Y-50976627D01*
X215502641Y-50800000D01*
X215520037Y-50623373D01*
X215525930Y-50603947D01*
X215571556Y-50453535D01*
X215655221Y-50297010D01*
X215767815Y-50159815D01*
X215905010Y-50047221D01*
X216061535Y-49963556D01*
X216231370Y-49912038D01*
X216231373Y-49912037D01*
X216363742Y-49899000D01*
X216452258Y-49899000D01*
X216584627Y-49912037D01*
X216584627Y-49912037D01*
G37*
G36*
X185151000Y-51371000D02*
G01*
X183149000Y-51371000D01*
X183149000Y-49669000D01*
X185151000Y-49669000D01*
X185151000Y-51371000D01*
X185151000Y-51371000D01*
G37*
G36*
X229601000Y-51371000D02*
G01*
X227599000Y-51371000D01*
X227599000Y-49669000D01*
X229601000Y-49669000D01*
X229601000Y-51371000D01*
X229601000Y-51371000D01*
G37*
M02*
